<svg class="animacion" width="100%" height="100%" viewBox="0 0 1141 454" fill="none" xmlns="http://www.w3.org/2000/svg">
			  <g>
			    <g id="sol2">
			      <path id="Vector" d="M1014.54 378.231C990.054 378.7 968.344 357.73 967.455 333.55C966.454 306.457 987.782 284.586 1013.79 284.216C1039.85 283.845 1060.91 304.322 1061.47 330.674C1062.03 356.619 1041.19 377.725 1014.53 378.231H1014.54ZM969.455 330.958C969.221 355.829 989.486 376.33 1014.39 376.417C1038.96 376.503 1059.51 356.113 1059.65 331.501C1059.8 307.112 1039.76 286.4 1015.84 286.215C989.782 286.018 969.69 305.396 969.455 330.958Z" fill="#5F388A"/>
			      <path id="Vector_2" d="M913.303 244.941C917.601 246.78 922.306 248.026 926.097 250.618C930.963 253.951 936.026 257.728 939.299 262.48C943.621 268.75 948.894 271.898 956.081 271.33C966.554 270.515 972.518 276.637 978.125 284.24C970.863 290.177 964.961 297.015 960.774 306.001C959.761 304.483 959.058 303.458 958.378 302.409C954.785 296.855 950.598 292.634 943.263 292.066C936.619 291.56 932.729 286.82 930.605 280.772C928.888 275.884 927.381 270.935 925.912 265.973C923.862 259.061 919.824 253.408 914.995 248.236C914.254 247.446 913.538 246.644 912.809 245.854C912.97 245.546 913.13 245.237 913.291 244.928L913.303 244.941ZM975.408 283.488C974.729 282.772 973.951 281.982 973.21 281.155C968.208 275.613 962.491 272.218 954.488 272.934C951.314 273.218 947.437 271.972 944.794 270.108C941.41 267.726 938.953 264.048 936.125 260.9C931.247 255.469 925.319 251.618 918.021 248.668C919.848 251.421 921.367 253.531 922.713 255.753C927.344 263.418 929.629 271.972 932 280.488C933.507 285.907 936.816 289.61 942.707 290.35C948.141 291.029 952.895 292.967 956.6 297.176C957.971 298.743 959.601 300.076 960.737 301.15C965.529 295.386 970.357 289.56 975.408 283.463V283.488Z" fill="#5F388A"/>
			      <path id="Vector_3" d="M1120.52 252.025C1117.75 258.11 1114.15 263.702 1108.62 267.429C1104.46 270.231 1099.85 272.539 1095.18 274.378C1089.03 276.785 1086.08 281.549 1084.91 287.388C1083.44 294.756 1079.25 299.545 1072.77 302.755C1071.23 303.52 1069.76 304.396 1068.31 305.174C1065.56 301.236 1062.95 297.176 1059.99 293.411C1057.86 290.708 1055.38 288.264 1052.85 285.919C1051.08 284.277 1051.32 283.327 1053.32 282.364C1056.15 280.994 1059.01 279.673 1061.75 278.155C1064.52 276.637 1066.32 274.341 1067.36 271.243C1069.57 264.689 1074.49 261.27 1081.19 260.505C1085.93 259.974 1090.71 259.468 1095.47 259.567C1103.93 259.74 1111.44 257.049 1118.64 253C1119.25 252.655 1119.88 252.346 1120.51 252.013L1120.52 252.025ZM1115.72 256.555C1113.55 257.37 1111.45 258.616 1109.2 258.937C1101.3 260.036 1093.34 261.468 1085.4 261.542C1077.07 261.628 1071.4 264.331 1068.45 272.391C1066.88 276.674 1063.58 279.464 1059.26 281.155C1057.28 281.92 1055.57 283.352 1054.32 284.129C1059.2 290.214 1063.99 296.176 1069.02 302.446C1075.63 299.101 1081.82 295.201 1083.56 286.413C1084.28 282.796 1086.65 278.982 1089.37 276.452C1092.21 273.811 1096.37 272.589 1099.98 270.799C1106.56 267.54 1111.73 262.702 1115.71 256.555H1115.72Z" fill="#5F388A"/>
			      <path id="Vector_4" d="M1066.2 453.227C1060.96 448.203 1056.16 443.093 1053.81 436.354C1052.26 431.898 1051.31 427.183 1050.57 422.505C1049.57 416.161 1045.59 412.211 1040.25 409.841C1033.21 406.719 1029.63 401.362 1028 394.228C1027.65 392.66 1027.18 391.117 1026.66 389.192C1035.72 387.143 1044.01 383.588 1051.58 377.417C1052.2 380.404 1052.68 383.02 1053.3 385.6C1054.46 390.451 1056.48 394.512 1061.09 397.388C1066.25 400.609 1068 406.04 1067.31 412.001C1066.76 416.84 1066.09 421.703 1064.9 426.406C1062.87 434.49 1063.66 442.328 1065.89 450.166C1066.09 450.844 1066.26 451.536 1066.4 452.239C1066.43 452.412 1066.31 452.622 1066.16 453.227H1066.2ZM1051.08 381.144C1044.09 384.144 1037.33 386.982 1030.62 389.994C1030.04 390.253 1029.45 391.623 1029.62 392.302C1031.34 399.276 1033.97 405.423 1041.37 408.607C1047.34 411.175 1051 415.927 1052.01 422.752C1052.68 427.22 1053.91 431.725 1055.68 435.873C1057.41 439.933 1060.11 443.575 1062.4 447.401C1062.74 442.809 1062.05 438.625 1062.48 434.577C1063.26 427.331 1064.69 420.148 1065.9 412.952C1066.74 407.941 1066.34 403.09 1061.84 400.115C1054.76 395.45 1051.76 388.772 1051.08 381.157V381.144Z" fill="#5F388A"/>
			      <path id="Vector_5" d="M1031.47 273.428C1022.55 272.897 1013.91 272.379 1005.03 271.848C1005.03 269.873 1005.44 267.108 1004.92 264.529C1004.39 261.863 1003.45 258.987 1001.82 256.876C997.686 251.507 996.76 245.866 999.316 239.744C1001.16 235.35 1003.12 230.956 1005.59 226.908C1010.11 219.514 1011.68 211.504 1011.68 203.024C1011.68 202.444 1011.79 201.864 1012.58 201C1013.78 203.432 1015.06 205.826 1016.16 208.307C1019.68 216.256 1020.69 224.575 1018.74 233.017C1017.2 239.707 1019.43 245.002 1024.2 249.113C1030.42 254.506 1032.57 261.06 1031.72 268.96C1031.55 270.564 1031.54 272.181 1031.47 273.428ZM1013.62 206.875C1012.89 210.171 1012.33 212.824 1011.72 215.466C1009.76 223.896 1005.42 231.24 1001.26 238.67C998.328 243.891 998.23 248.903 1001.89 254.05C1003.9 256.876 1005.33 260.233 1006.38 263.554C1007.03 265.64 1006.5 268.096 1006.5 270.132C1014.02 270.552 1021.72 270.996 1029.63 271.441C1030.05 264.06 1030.31 256.74 1023.83 251.137C1018.31 246.36 1015.93 240.559 1017.3 233.005C1018.88 224.254 1017.56 215.676 1013.62 206.888V206.875Z" fill="#5F388A"/>
			      <path id="Vector_6" d="M1141 358.433C1134.8 361.074 1128.45 362.506 1122.01 361.556C1117.05 360.815 1112.13 359.285 1107.45 357.458C1102.1 355.36 1097.33 356.199 1092.55 358.754C1089.61 360.322 1086.8 362.333 1083.66 363.321C1077.71 365.209 1072.08 362.975 1066 360.926C1069.94 352.854 1073.04 344.72 1073.41 335.586C1075.82 336.191 1078.1 336.821 1080.43 337.314C1083.5 337.969 1086.37 337.611 1089.23 336.031C1095.37 332.661 1102.21 333.846 1108.11 338.894C1112.28 342.461 1116.5 345.954 1120.67 349.497C1125.69 353.755 1131.71 355.853 1137.91 357.594C1138.94 357.878 1139.98 358.149 1141 358.421V358.433ZM1135.12 358.877C1132.05 357.446 1129.65 356.384 1127.29 355.236C1119.23 351.287 1112.89 345.078 1106.31 339.178C1102.21 335.512 1097.54 334.216 1092.23 336.574C1086.79 338.981 1081.28 340.45 1075.81 337.413C1073.55 344.967 1071.36 352.286 1069.08 359.927C1076.12 362.037 1083.11 363.531 1090.03 358.458C1095.51 354.459 1101.58 353.311 1108.13 356.273C1110.79 357.483 1113.66 358.384 1116.54 358.927C1122.51 360.075 1128.55 360.322 1135.11 358.89L1135.12 358.877Z" fill="#5F388A"/>
			      <path id="Vector_7" d="M974.457 376.404C982.558 380.823 990.054 384.909 997.785 389.13C996.933 390.562 995.661 392.685 994.401 394.832C992.746 397.659 992.302 400.596 992.919 403.904C994.253 411.1 991.227 416.593 985.374 420.592C981.014 423.566 976.494 426.307 972.012 429.084C965.985 432.824 961.613 438.106 957.921 444.031C957.365 444.932 956.81 445.821 955.908 446.598C955.624 440.229 955.982 433.91 958.637 428.195C960.786 423.554 963.602 419.074 966.874 415.149C971.542 409.545 971.468 403.583 969.406 397.387C966.553 388.834 970.122 382.243 974.444 376.417L974.457 376.404ZM996.043 390.08C988.98 386.217 982.262 382.551 975.235 378.712C971.9 384.008 968.554 389.636 970.962 396.758C973.457 404.126 972.79 410.755 967.331 416.827C962.416 422.295 959.86 429.084 958.23 436.193C957.921 437.551 957.909 438.983 957.748 440.464C960.91 437.23 963.491 433.873 966.751 431.429C972.506 427.121 978.656 423.357 984.682 419.419C989.128 416.519 992.153 412.803 991.548 407.163C990.869 400.819 991.017 394.734 996.043 390.093V390.08Z" fill="#5F388A"/>
			      <path id="Vector_8" d="M891.012 363.321C895.347 358.927 900.064 354.829 905.881 352.694C910.771 350.892 916.02 349.695 921.194 349.152C927.085 348.535 931.555 345.757 933.852 340.857C938.162 331.662 945.596 327.885 954.624 326.786C955.785 335.414 956.958 344.227 958.18 353.311C957.291 353.546 955.488 353.706 954.043 354.508C951.882 355.706 949.474 356.989 948.054 358.903C943.262 365.308 937.384 367.678 929.394 365.852C924.146 364.654 918.872 363.556 913.624 362.408C907.202 361.001 900.879 361.877 894.581 363.223C893.507 363.445 892.445 363.741 891.383 364C891.259 363.778 891.123 363.568 891 363.346L891.012 363.321ZM952.821 329.193C946.177 330.674 939.953 332.686 936.544 339.685C933.642 345.646 929.16 349.793 922.096 350.386C919.774 350.583 917.44 350.941 915.168 351.46C908.252 353.027 902.09 356.113 896.792 360.433C899.62 360.433 902.411 360.507 905.214 360.421C914.093 360.162 922.491 362.667 930.987 364.741C936.297 366.037 940.978 364.951 944.658 360.458C946.51 358.199 948.622 356.064 950.956 354.323C952.66 353.052 954.92 352.521 956.415 351.879C955.204 344.276 954.043 337.006 952.796 329.181L952.821 329.193Z" fill="#5F388A"/>
			      <path id="Vector_9" d="M1054.48 375.356C1057.62 371.788 1060.14 368.913 1062.78 365.901C1066.94 368.789 1071.29 371.406 1073.15 376.689C1074.71 381.07 1078.34 383.255 1082.69 384.366C1083.93 384.687 1085.18 384.934 1086.6 385.254C1081.19 389.303 1072.15 389.031 1066.92 384.909C1063.99 382.601 1060.98 380.428 1058.02 378.17C1056.83 377.256 1055.65 376.281 1054.49 375.343L1054.48 375.356ZM1082.98 385.687C1075.07 382.662 1075.29 382.527 1071.21 375.726C1069.63 373.097 1066.83 371.159 1064.45 369.073C1064.01 368.703 1062.57 368.801 1062.14 369.233C1060.38 370.998 1058.84 372.986 1057.38 374.689C1061.26 377.96 1064.84 381.231 1068.68 384.168C1072.83 387.353 1077.54 386.489 1082.98 385.674V385.687Z" fill="#5F388A"/>
			      <path id="Vector_10" d="M1050.31 247.866C1055.54 252.371 1057.65 261.159 1054.49 266.911C1052.01 271.441 1050.15 275.983 1049.86 281.142C1049.84 281.599 1049.5 282.043 1049.23 282.685C1045.16 280.463 1041.23 278.328 1037.25 276.156C1038.39 270.564 1040.71 265.923 1045.58 262.566C1049.58 259.801 1050.55 255.37 1050.44 250.705C1050.42 249.853 1050.36 249.001 1050.31 247.866ZM1051.48 252.124C1051.84 257.863 1049.59 261.887 1044.72 264.899C1041.08 267.145 1039.64 271.046 1038.97 275.329C1042.11 276.995 1045.24 278.661 1047.73 279.982C1049.4 275.65 1050.63 271.478 1052.59 267.713C1055.47 262.196 1054.06 257.234 1051.47 252.136L1051.48 252.124Z" fill="#5F388A"/>
			      <path id="Vector_11" d="M926.665 314.801C930.098 307.963 938.434 304.408 945.782 306.124C948.98 306.865 952.327 307.087 955.624 307.21C958.601 307.321 959.539 308.235 958.761 311.024C958.033 313.641 957.403 316.307 956.439 318.85C956.168 319.553 954.871 320.294 954.068 320.281C950.265 320.183 946.56 319.43 943.608 316.788C939.175 312.814 934.211 312.444 928.826 314.283C928.184 314.505 927.505 314.616 926.678 314.826L926.665 314.801ZM957.378 309.654C951.895 308.79 946.585 307.704 941.213 307.21C937.73 306.889 932.235 310.148 930.259 313.122C935.952 310.74 940.484 312.036 944.72 315.961C946.301 317.442 948.82 318.06 951.018 318.701C953.179 319.343 954.958 318.85 955.489 316.109C955.908 313.949 956.723 311.863 957.39 309.654H957.378Z" fill="#5F388A"/>
			      <path id="Vector_12" d="M994.636 275.119C991.005 276.835 987.016 278.711 982.879 280.661C980.866 276.082 978.902 271.503 980.088 266.047C981.051 261.641 979.075 257.913 975.926 254.827C975.074 253.988 974.099 253.26 972.95 252.297C978.371 251.112 986.658 255.79 988.992 260.987C989.486 262.097 989.807 263.282 990.264 264.406C991.672 267.911 993.117 271.404 994.636 275.119ZM976.852 253.741C977.112 254.445 977.137 254.778 977.309 254.939C981.249 258.432 982.459 262.566 981.187 267.8C980.286 271.503 981.372 275.156 983.855 278.439C986.843 276.995 989.683 275.625 992.178 274.416C990.82 270.626 989.486 267.454 988.547 264.183C986.868 258.308 982.175 256.049 976.84 253.741H976.852Z" fill="#5F388A"/>
			      <path id="Vector_13" d="M1073.34 323.133C1072.94 321.343 1072.51 319.269 1072.02 317.22C1071.52 315.172 1070.94 313.135 1070.18 310.222C1073.97 310.407 1077.71 309.691 1080.6 310.926C1087.29 313.777 1093.21 313.567 1099.4 308.346C1099.1 309.728 1099.1 310.37 1098.84 310.901C1095.26 318.109 1090.03 322.676 1081.37 322.219C1078.81 322.084 1076.22 322.787 1073.35 323.133H1073.34ZM1096.59 311.247C1091.23 315.048 1086.61 315.196 1081.6 312.444C1078.87 310.95 1075.64 310.728 1072.47 312.123C1073.25 315.258 1074 318.257 1074.67 320.948C1083.19 320.973 1091.58 321.034 1096.59 311.247Z" fill="#5F388A"/>
			      <path id="Vector_14" d="M962.416 360.236C965.071 363.926 967.59 367.419 970.628 371.653C967.578 373.159 964.775 375.467 961.724 375.849C954.586 376.763 949.486 379.824 946.918 386.884C944.398 382.107 946.745 372.961 951.203 369.295C952.141 368.53 953.166 367.851 954.204 367.209C955.747 366.247 957.501 365.531 958.872 364.37C960.218 363.235 961.206 361.68 962.416 360.236ZM962.651 363.469C959.86 365.321 957.242 367.209 954.488 368.839C949.239 371.949 948.152 377.059 947.374 382.786C947.93 382.416 948.276 382.317 948.387 382.107C950.721 377.577 954.204 375.17 959.526 375.084C962.823 375.022 966.059 373.813 968.097 370.813C966.207 368.258 964.404 365.827 962.651 363.469Z" fill="#5F388A"/>
			      <path id="Vector_15" d="M962.653 330.807C962.923 301.412 986.028 279.129 1015.99 279.356C1043.51 279.569 1066.55 303.371 1066.38 331.431C1066.21 359.718 1042.58 383.18 1014.33 383.08C985.687 382.981 962.383 359.42 962.653 330.807Z" fill="#5F388A"/>
			      <path id="Vector_16" d="M975.408 283.488C970.357 289.573 965.516 295.398 960.737 301.175C959.613 300.101 957.97 298.768 956.6 297.201C952.895 292.979 948.14 291.054 942.706 290.375C936.816 289.634 933.506 285.931 932 280.513C929.629 271.984 927.356 263.443 922.713 255.778C921.367 253.556 919.848 251.445 918.02 248.693C925.319 251.643 931.246 255.494 936.124 260.925C938.952 264.072 941.422 267.75 944.794 270.133C947.436 271.984 951.314 273.243 954.488 272.959C962.49 272.243 968.208 275.637 973.209 281.179C973.95 282.006 974.728 282.796 975.408 283.512V283.488Z" fill="#5F388A"/>
			      <path id="Vector_17" d="M1115.72 256.555C1111.74 262.702 1106.57 267.54 1099.99 270.799C1096.37 272.589 1092.22 273.811 1089.38 276.452C1086.65 278.982 1084.28 282.796 1083.58 286.413C1081.83 295.201 1075.65 299.101 1069.03 302.446C1064 296.176 1059.21 290.214 1054.33 284.129C1055.59 283.352 1057.31 281.92 1059.27 281.155C1063.61 279.464 1066.9 276.674 1068.46 272.391C1071.4 264.331 1077.08 261.628 1085.42 261.542C1093.36 261.455 1101.3 260.036 1109.21 258.937C1111.45 258.629 1113.56 257.382 1115.73 256.555H1115.72Z" fill="#5F388A"/>
			      <path id="Vector_18" d="M1051.1 381.144C1051.78 388.76 1054.78 395.437 1061.85 400.103C1066.35 403.065 1066.77 407.928 1065.92 412.939C1064.71 420.135 1063.27 427.319 1062.5 434.564C1062.06 438.613 1062.75 442.797 1062.41 447.388C1060.12 443.562 1057.42 439.921 1055.69 435.86C1053.92 431.701 1052.69 427.208 1052.02 422.74C1051.01 415.926 1047.36 411.162 1041.38 408.595C1033.97 405.423 1031.35 399.276 1029.63 392.29C1029.47 391.623 1030.05 390.241 1030.63 389.982C1037.34 386.982 1044.11 384.131 1051.1 381.132V381.144Z" fill="#5F388A"/>
			      <path id="Vector_19" d="M1013.62 206.875C1017.56 215.676 1018.88 224.254 1017.3 232.993C1015.93 240.534 1018.31 246.348 1023.83 251.124C1030.31 256.728 1030.05 264.047 1029.63 271.428C1021.72 270.984 1014.02 270.552 1006.5 270.12C1006.5 268.083 1007.03 265.627 1006.38 263.541C1005.33 260.221 1003.9 256.864 1001.89 254.037C998.217 248.89 998.316 243.891 1001.26 238.658C1005.43 231.228 1009.76 223.871 1011.72 215.453C1012.32 212.812 1012.89 210.158 1013.62 206.863V206.875Z" fill="#5F388A"/>
			      <path id="Vector_20" d="M1135.12 358.878C1128.55 360.31 1122.53 360.063 1116.55 358.915C1113.67 358.36 1110.81 357.459 1108.14 356.261C1101.59 353.287 1095.51 354.447 1090.05 358.446C1083.12 363.519 1076.13 362.025 1069.09 359.915C1071.37 352.287 1073.56 344.968 1075.82 337.401C1081.29 340.438 1086.8 338.981 1092.25 336.562C1097.54 334.217 1102.22 335.501 1106.32 339.166C1112.91 345.066 1119.24 351.275 1127.31 355.225C1129.66 356.385 1132.06 357.446 1135.13 358.866L1135.12 358.878Z" fill="#5F388A"/>
			      <path id="Vector_21" d="M996.044 390.081C991.017 394.734 990.869 400.807 991.548 407.151C992.153 412.792 989.128 416.494 984.682 419.407C978.656 423.345 972.506 427.122 966.751 431.417C963.491 433.861 960.91 437.218 957.748 440.452C957.909 438.958 957.921 437.539 958.23 436.181C959.86 429.072 962.416 422.283 967.331 416.815C972.79 410.743 973.469 404.114 970.962 396.746C968.554 389.636 971.901 383.996 975.235 378.701C982.262 382.539 988.98 386.217 996.044 390.068V390.081Z" fill="#5F388A"/>
			      <path id="Vector_22" d="M952.821 329.193C954.069 337.018 955.229 344.288 956.44 351.892C954.945 352.533 952.685 353.064 950.981 354.335C948.647 356.076 946.535 358.211 944.683 360.47C941.003 364.963 936.323 366.049 931.012 364.753C922.516 362.667 914.118 360.174 905.239 360.433C902.436 360.519 899.645 360.445 896.817 360.445C902.115 356.125 908.277 353.039 915.193 351.472C917.465 350.953 919.799 350.596 922.121 350.398C929.172 349.806 933.667 345.658 936.57 339.697C939.978 332.698 946.202 330.686 952.846 329.205L952.821 329.193Z" fill="#5F388A"/>
			      <path id="Vector_23" d="M1082.98 385.687C1077.54 386.501 1072.83 387.365 1068.68 384.181C1064.84 381.243 1061.25 377.972 1057.38 374.701C1058.84 372.986 1060.38 371.011 1062.14 369.246C1062.57 368.814 1064.01 368.715 1064.45 369.085C1066.83 371.171 1069.63 373.109 1071.21 375.738C1075.29 382.539 1075.05 382.675 1082.98 385.699V385.687Z" fill="#5F388A"/>
			      <path id="Vector_24" d="M1051.47 252.112C1054.05 257.209 1055.47 262.171 1052.59 267.689C1050.62 271.466 1049.41 275.625 1047.73 279.957C1045.24 278.637 1042.11 276.97 1038.97 275.304C1039.64 271.034 1041.08 267.121 1044.72 264.874C1049.59 261.875 1051.84 257.839 1051.48 252.1L1051.47 252.112Z" fill="#5F388A"/>
			      <path id="Vector_25" d="M957.378 309.654C956.711 311.864 955.896 313.95 955.476 316.11C954.945 318.85 953.167 319.343 951.005 318.702C948.807 318.06 946.3 317.43 944.707 315.961C940.484 312.024 935.952 310.728 930.246 313.123C932.222 310.148 937.718 306.889 941.2 307.21C946.572 307.704 951.895 308.803 957.365 309.654H957.378Z" fill="#5F388A"/>
			      <path id="Vector_26" d="M976.84 253.741C982.175 256.049 986.856 258.308 988.548 264.183C989.486 267.454 990.82 270.626 992.178 274.415C989.684 275.625 986.843 276.995 983.855 278.439C981.385 275.156 980.286 271.502 981.187 267.799C982.459 262.566 981.237 258.431 977.31 254.938C977.137 254.778 977.112 254.444 976.853 253.741H976.84Z" fill="#5F388A"/>
			      <path id="Vector_27" d="M1096.6 311.247C1091.58 321.035 1083.21 320.985 1074.68 320.948C1074.02 318.257 1073.26 315.258 1072.49 312.123C1075.65 310.728 1078.88 310.951 1081.61 312.444C1086.63 315.184 1091.26 315.048 1096.6 311.247Z" fill="#5F388A"/>
			      <path id="Vector_28" d="M962.651 363.469C964.405 365.827 966.208 368.258 968.097 370.813C966.047 373.825 962.824 375.022 959.527 375.084C954.204 375.183 950.721 377.577 948.387 382.107C948.276 382.329 947.93 382.428 947.375 382.786C948.153 377.059 949.24 371.949 954.488 368.838C957.254 367.197 959.86 365.308 962.651 363.469Z" fill="#5F388A"/>
		        </g>
				</g>
			  
			</svg><!--Scalable Vector Graphic-->
<svg xmlns="http://www.w3.org/2000/svg" 
     xmlns:xlink="http://www.w3.org/1999/xlink"  
     width="960px" 
     height="560px" 
     viewBox="0 0 960px 560px">
</svg>
