<svg width="336" height="338" viewBox="0 0 336 338" fill="none" xmlns="http://www.w3.org/2000/svg">
<g id="Group 1">
<path id="Vector" d="M165.555 237.501C132.739 238.13 103.646 210.028 102.454 177.626C101.114 141.32 129.694 112.011 164.546 111.514C199.464 111.018 227.697 138.458 228.441 173.772C229.186 208.539 201.268 236.823 165.539 237.501H165.555ZM105.135 174.152C104.821 207.481 131.978 234.954 165.357 235.07C198.273 235.186 225.81 207.861 226.009 174.88C226.207 142.197 199.348 114.442 167.293 114.194C132.375 113.929 105.45 139.897 105.135 174.152Z" fill="#F0A743"/>
<path id="Vector_2" d="M29.8874 58.8833C35.6464 61.3478 41.9515 63.0184 47.0321 66.4918C53.5523 70.9577 60.3374 76.019 64.7229 82.387C70.515 90.7894 77.5814 95.0072 87.2129 94.2463C101.246 93.1547 109.239 101.359 116.753 111.547C107.022 119.503 99.1115 128.667 93.5015 140.708C92.1444 138.673 91.2012 137.301 90.291 135.895C85.4752 128.452 79.8651 122.795 70.0351 122.034C61.1317 121.356 55.9188 115.004 53.0724 106.9C50.7721 100.35 48.7531 93.7171 46.7838 87.0679C44.0367 77.8053 38.6252 70.2299 32.1546 63.2995C31.1616 62.241 30.2018 61.1659 29.2254 60.1073C29.4405 59.6938 29.6557 59.2803 29.8708 58.8668L29.8874 58.8833ZM113.112 110.538C112.202 109.579 111.159 108.521 110.166 107.412C103.464 99.9858 95.8018 95.4372 85.078 96.3966C80.825 96.777 75.6286 95.1064 72.0871 92.6089C67.5527 89.4166 64.2595 84.4876 60.4698 80.2698C53.933 72.9921 45.9895 67.8316 36.2091 63.8785C38.6583 67.5669 40.6938 70.3953 42.4976 73.3726C48.7035 83.6441 51.765 95.1064 54.9424 106.519C56.9614 113.78 61.3965 118.742 69.2904 119.735C76.5719 120.645 82.9432 123.241 87.9079 128.882C89.7448 130.982 91.9293 132.769 93.4518 134.208C99.8728 126.483 106.343 118.676 113.112 110.505V110.538Z" fill="#F0A743"/>
<path id="Vector_3" d="M307.578 68.3774C303.855 76.5317 299.039 84.0245 291.625 89.0196C286.048 92.7742 279.875 95.8673 273.62 98.3318C265.379 101.557 261.423 107.942 259.851 115.765C257.882 125.64 252.272 132.057 243.584 136.358C241.515 137.383 239.546 138.558 237.61 139.6C233.919 134.323 230.427 128.882 226.456 123.837C223.609 120.215 220.283 116.94 216.89 113.797C214.524 111.597 214.838 110.323 217.519 109.033C221.309 107.197 225.148 105.428 228.822 103.393C232.529 101.359 234.945 98.2821 236.335 94.1305C239.298 85.3477 245.884 80.766 254.87 79.7405C261.225 79.0293 267.629 78.3511 274.001 78.4835C285.337 78.715 295.398 75.1093 305.046 69.6841C305.874 69.2209 306.718 68.8074 307.562 68.3608L307.578 68.3774ZM301.141 74.4476C298.228 75.5393 295.415 77.2099 292.403 77.6399C281.812 79.112 271.154 81.0307 260.513 81.1299C249.343 81.2457 241.747 84.868 237.792 95.6688C235.69 101.408 231.271 105.146 225.479 107.412C222.831 108.438 220.531 110.357 218.86 111.399C225.396 119.553 231.817 127.542 238.553 135.944C247.423 131.462 255.714 126.235 258.047 114.459C259.007 109.612 262.185 104.501 265.825 101.111C269.632 97.5709 275.209 95.9334 280.041 93.5351C288.862 89.1685 295.796 82.6847 301.124 74.4476H301.141Z" fill="#F0A743"/>
<path id="Vector_4" d="M234.78 338C227.763 331.268 221.325 324.42 218.181 315.389C216.096 309.418 214.822 303.1 213.829 296.831C212.488 288.33 207.16 283.037 200.01 279.861C190.577 275.676 185.778 268.498 183.594 258.938C183.114 256.837 182.485 254.769 181.79 252.189C193.937 249.444 205.041 244.68 215.186 236.41C216.013 240.413 216.659 243.919 217.486 247.376C219.042 253.876 221.756 259.318 227.928 263.172C234.846 267.489 237.196 274.767 236.269 282.756C235.524 289.239 234.631 295.756 233.042 302.058C230.311 312.892 231.371 323.395 234.366 333.898C234.631 334.808 234.862 335.734 235.044 336.677C235.094 336.908 234.929 337.19 234.73 338H234.78ZM214.524 241.405C205.157 245.424 196.088 249.228 187.102 253.264C186.324 253.612 185.53 255.448 185.762 256.357C188.062 265.703 191.587 273.94 201.5 278.207C209.509 281.647 214.408 288.015 215.765 297.162C216.659 303.15 218.313 309.187 220.68 314.744C222.997 320.186 226.621 325.066 229.683 330.193C230.146 324.04 229.219 318.433 229.798 313.008C230.841 303.299 232.761 293.672 234.383 284.029C235.508 277.314 234.962 270.814 228.938 266.827C219.455 260.575 215.434 251.627 214.524 241.422V241.405Z" fill="#F0A743"/>
<path id="Vector_5" d="M188.244 97.0582C176.279 96.347 164.711 95.6523 152.813 94.941C152.813 92.2946 153.359 88.5896 152.664 85.1327C151.952 81.56 150.695 77.7061 148.51 74.8777C142.966 67.6827 141.725 60.1238 145.151 51.9198C147.616 46.0315 150.248 40.1432 153.558 34.718C159.614 24.8104 161.716 14.0758 161.716 2.7126C161.716 1.93521 161.865 1.15782 162.924 0C164.529 3.25843 166.251 6.46724 167.723 9.79183C172.44 20.4437 173.797 31.5919 171.182 42.9054C169.114 51.8702 172.109 58.966 178.497 64.4739C186.837 71.702 189.717 80.4849 188.575 91.0706C188.343 93.2208 188.327 95.3876 188.244 97.0582ZM164.314 7.87316C163.338 12.2894 162.593 15.8456 161.766 19.3852C159.151 30.6822 153.326 40.5236 147.749 50.4808C143.827 57.4774 143.694 64.1927 148.593 71.09C151.29 74.8777 153.21 79.3767 154.617 83.826C155.494 86.6213 154.782 89.9128 154.782 92.6419C164.86 93.2043 175.17 93.7998 185.778 94.3952C186.341 84.5041 186.688 74.6958 178 67.1865C170.603 60.7854 167.409 53.0115 169.246 42.8889C171.364 31.1618 169.593 19.6664 164.314 7.8897V7.87316Z" fill="#F0A743"/>
<path id="Vector_6" d="M335.017 210.971C326.709 214.511 318.203 216.429 309.564 215.156C302.928 214.163 296.325 212.112 290.053 209.664C282.887 206.852 276.5 207.977 270.095 211.401C266.156 213.502 262.383 216.198 258.18 217.521C250.203 220.051 242.657 217.058 234.515 214.312C239.794 203.495 243.948 192.595 244.444 180.355C247.671 181.165 250.733 182.009 253.844 182.671C257.965 183.547 261.804 183.067 265.643 180.95C273.868 176.435 283.036 178.023 290.947 184.788C296.524 189.568 302.183 194.249 307.777 198.996C314.496 204.702 322.572 207.514 330.879 209.846C332.253 210.227 333.643 210.59 335.017 210.954V210.971ZM327.139 211.566C323.019 209.648 319.808 208.225 316.647 206.687C305.841 201.394 297.351 193.074 288.531 185.168C283.036 180.256 276.781 178.519 269.665 181.678C262.367 184.903 254.986 186.872 247.655 182.803C244.626 192.925 241.697 202.734 238.636 212.972C248.068 215.801 257.435 217.802 266.719 211.004C274.05 205.645 282.192 204.107 290.963 208.076C294.538 209.697 298.377 210.905 302.233 211.632C310.243 213.171 318.335 213.502 327.123 211.583L327.139 211.566Z" fill="#F0A743"/>
<path id="Vector_7" d="M111.838 235.053C122.694 240.975 132.739 246.45 143.099 252.106C141.957 254.025 140.252 256.87 138.564 259.748C136.347 263.536 135.751 267.472 136.578 271.905C138.366 281.548 134.311 288.909 126.467 294.268C120.625 298.254 114.568 301.926 108.561 305.647C100.485 310.659 94.6268 317.738 89.6787 325.677C88.934 326.885 88.1893 328.076 86.9812 329.118C86.6006 320.583 87.0805 312.115 90.6385 304.456C93.518 298.237 97.2912 292.233 101.677 286.973C107.932 279.464 107.833 271.475 105.069 263.172C101.246 251.709 106.029 242.877 111.821 235.07L111.838 235.053ZM140.765 253.38C131.299 248.203 122.297 243.291 112.88 238.146C108.412 245.242 103.927 252.785 107.154 262.328C110.497 272.203 109.604 281.085 102.289 289.223C95.7025 296.55 92.2768 305.647 90.0924 315.174C89.6787 316.994 89.6621 318.913 89.447 320.897C93.6835 316.564 97.1422 312.065 101.511 308.79C109.223 303.017 117.464 297.973 125.54 292.696C131.498 288.809 135.552 283.831 134.741 276.272C133.831 267.77 134.03 259.616 140.765 253.397V253.38Z" fill="#F0A743"/>
<path id="Vector_8" d="M0.0165489 217.521C5.82522 211.632 12.1469 206.141 19.9415 203.28C26.4948 200.865 33.5281 199.26 40.4621 198.533C48.356 197.706 54.3467 193.984 57.4248 187.418C63.2004 175.095 73.1628 170.034 85.2601 168.562C86.8157 180.123 88.3878 191.933 90.0262 204.107C88.8347 204.421 86.4185 204.636 84.4823 205.711C81.5862 207.316 78.3592 209.036 76.4561 211.599C70.0351 220.184 62.1578 223.36 51.4506 220.912C44.4173 219.307 37.3509 217.835 30.3176 216.297C21.7122 214.411 13.2391 215.586 4.79919 217.388C3.35943 217.686 1.93622 218.083 0.513017 218.431C0.347528 218.133 0.165489 217.852 0 217.554L0.0165489 217.521ZM82.8439 171.787C73.9406 173.772 65.6 176.468 61.0325 185.846C57.1435 193.835 51.1362 199.393 41.6702 200.187C38.559 200.451 35.4313 200.931 32.3863 201.626C23.1189 203.726 14.8609 207.861 7.76145 213.65C11.5512 213.65 15.2912 213.75 19.0478 213.634C30.9465 213.287 42.1998 216.644 53.5854 219.423C60.7015 221.16 66.9735 219.704 71.9051 213.683C74.3874 210.657 77.2173 207.795 80.3451 205.463C82.6288 203.759 85.6573 203.048 87.6597 202.188C86.0379 191.999 84.4823 182.257 82.8109 171.771L82.8439 171.787Z" fill="#F0A743"/>
<path id="Vector_9" d="M219.075 233.648C223.278 228.867 226.654 225.014 230.196 220.978C235.773 224.848 241.598 228.355 244.097 235.434C246.182 241.306 251.047 244.233 256.872 245.722C258.544 246.152 260.215 246.483 262.118 246.913C254.87 252.338 242.756 251.974 235.739 246.45C231.817 243.357 227.779 240.446 223.824 237.419C222.219 236.195 220.647 234.888 219.091 233.631L219.075 233.648ZM257.27 247.492C246.662 243.439 246.96 243.257 241.499 234.144C239.38 230.621 235.624 228.024 232.43 225.229C231.85 224.732 229.914 224.865 229.335 225.444C226.985 227.809 224.916 230.472 222.964 232.754C228.16 237.138 232.959 241.521 238.106 245.457C243.666 249.725 249.972 248.567 257.27 247.475V247.492Z" fill="#F0A743"/>
<path id="Vector_10" d="M213.481 62.8033C220.498 68.8405 223.328 80.6172 219.091 88.3249C215.765 94.3952 213.266 100.482 212.885 107.396C212.852 108.008 212.406 108.603 212.041 109.463C206.58 106.486 201.318 103.625 195.989 100.714C197.511 93.2208 200.623 87.0017 207.143 82.5028C212.505 78.7977 213.812 72.8598 213.663 66.6076C213.63 65.4663 213.547 64.325 213.481 62.8033ZM215.053 68.5097C215.533 76.2009 212.521 81.5931 206.001 85.6289C201.119 88.6392 199.183 93.8659 198.289 99.6054C202.493 101.838 206.696 104.071 210.022 105.841C212.273 100.035 213.911 94.4448 216.543 89.4C220.399 82.0066 218.512 75.3574 215.037 68.5263L215.053 68.5097Z" fill="#F0A743"/>
<path id="Vector_11" d="M47.7933 152.501C52.3939 143.338 63.5644 138.574 73.411 140.873C77.6972 141.866 82.182 142.163 86.6005 142.329C90.5888 142.478 91.8466 143.702 90.804 147.44C89.8276 150.946 88.9836 154.519 87.6928 157.926C87.3287 158.869 85.5911 159.861 84.5154 159.845C79.4183 159.713 74.4536 158.704 70.4984 155.164C64.5574 149.838 57.9047 149.342 50.6894 151.806C49.8288 152.104 48.9186 152.253 47.8099 152.534L47.7933 152.501ZM88.9505 145.604C81.6028 144.446 74.4867 142.99 67.2879 142.329C62.6211 141.899 55.2569 146.265 52.609 150.252C60.2381 147.059 66.3116 148.796 71.9878 154.056C74.1061 156.041 77.4821 156.868 80.4278 157.728C83.3239 158.588 85.7069 157.926 86.4185 154.254C86.9812 151.36 88.0734 148.565 88.967 145.604H88.9505Z" fill="#F0A743"/>
<path id="Vector_12" d="M138.879 99.3242C134.013 101.623 128.668 104.137 123.124 106.751C120.427 100.614 117.795 94.4779 119.384 87.1671C120.675 81.2623 118.027 76.2671 113.807 72.132C112.665 71.0073 111.358 70.0314 109.819 68.7413C117.084 67.1534 128.188 73.4222 131.316 80.3856C131.978 81.8742 132.408 83.4621 133.02 84.9673C134.907 89.6647 136.843 94.3456 138.879 99.3242ZM115.048 70.6765C115.396 71.6193 115.429 72.0659 115.66 72.2809C120.94 76.9618 122.561 82.5028 120.857 89.5158C119.649 94.4779 121.105 99.3738 124.431 103.774C128.436 101.838 132.242 100.002 135.585 98.3814C133.765 93.3036 131.978 89.0527 130.72 84.6695C128.469 76.7964 122.181 73.7695 115.032 70.6765H115.048Z" fill="#F0A743"/>
<path id="Vector_13" d="M244.345 163.666C243.815 161.267 243.236 158.489 242.574 155.743C241.912 152.997 241.134 150.268 240.108 146.365C245.189 146.613 250.203 145.653 254.076 147.307C263.045 151.128 270.972 150.847 279.263 143.851C278.866 145.703 278.866 146.563 278.518 147.274C273.719 156.934 266.719 163.054 255.102 162.442C251.676 162.26 248.201 163.203 244.361 163.666H244.345ZM275.507 147.738C268.324 152.832 262.135 153.03 255.416 149.342C251.759 147.341 247.423 147.043 243.187 148.912C244.229 153.113 245.239 157.132 246.132 160.738C257.551 160.771 268.788 160.854 275.507 147.738Z" fill="#F0A743"/>
<path id="Vector_14" d="M95.7025 213.386C99.2605 218.331 102.636 223.012 106.708 228.685C102.62 230.703 98.8633 233.796 94.7757 234.309C85.2104 235.533 78.3757 239.635 74.9336 249.096C71.5576 242.695 74.7019 230.439 80.676 225.526C81.9338 224.501 83.3073 223.591 84.6974 222.731C86.766 221.441 89.116 220.482 90.9529 218.927C92.7568 217.405 94.0807 215.321 95.7025 213.386ZM96.0169 217.719C92.2768 220.2 88.7685 222.731 85.0781 224.914C78.0448 229.082 76.5884 235.93 75.5459 243.605C76.2906 243.109 76.7539 242.976 76.9029 242.695C80.0306 236.625 84.6974 233.399 91.83 233.284C96.2486 233.201 100.584 231.58 103.315 227.561C100.783 224.137 98.3668 220.878 96.0169 217.719Z" fill="#F0A743"/>
<path id="Vector_15" d="M96.0196 173.949C96.3812 134.559 127.343 104.698 167.497 105.002C204.377 105.288 235.244 137.184 235.015 174.786C234.787 212.693 203.121 244.133 165.27 244C126.886 243.866 95.6581 212.293 96.0196 173.949Z" fill="#F0A743"/>
<path id="Vector_16" d="M113.112 110.538C106.343 118.693 99.8562 126.5 93.4518 134.241C91.9458 132.802 89.7448 131.015 87.9079 128.915C82.9432 123.258 76.5719 120.678 69.2904 119.768C61.3965 118.776 56.9614 113.813 54.9424 106.552C51.765 95.123 48.72 83.6771 42.4976 73.4056C40.6938 70.4284 38.6583 67.6 36.209 63.9115C45.9895 67.8646 53.9329 73.0252 60.4698 80.3029C64.2595 84.5207 67.5693 89.4497 72.0871 92.6419C75.6286 95.123 80.825 96.8101 85.078 96.4297C95.8017 95.4703 103.464 100.019 110.166 107.445C111.159 108.554 112.202 109.612 113.112 110.572V110.538Z" fill="#F0A743"/>
<path id="Vector_17" d="M301.141 74.4477C295.812 82.6847 288.878 89.1685 280.058 93.5351C275.209 95.9334 269.648 97.5709 265.842 101.111C262.185 104.501 259.007 109.612 258.064 114.459C255.731 126.235 247.44 131.462 238.569 135.944C231.834 127.542 225.413 119.553 218.876 111.399C220.564 110.357 222.864 108.438 225.496 107.412C231.304 105.146 235.723 101.408 237.808 95.6688C241.747 84.868 249.359 81.2457 260.53 81.1299C271.171 81.0141 281.812 79.112 292.42 77.6399C295.415 77.2264 298.245 75.5559 301.157 74.4477H301.141Z" fill="#F0A743"/>
<path id="Vector_18" d="M214.54 241.405C215.451 251.61 219.472 260.559 228.954 266.811C234.978 270.78 235.541 277.297 234.399 284.013C232.777 293.656 230.858 303.282 229.815 312.991C229.236 318.416 230.163 324.023 229.699 330.176C226.638 325.049 223.013 320.17 220.697 314.728C218.33 309.154 216.675 303.133 215.782 297.146C214.425 288.015 209.526 281.631 201.516 278.19C191.587 273.94 188.079 265.703 185.778 256.341C185.563 255.448 186.341 253.595 187.119 253.248C196.105 249.228 205.174 245.408 214.54 241.388V241.405Z" fill="#F0A743"/>
<path id="Vector_19" d="M164.314 7.87317C169.593 19.6664 171.364 31.1618 169.246 42.8723C167.409 52.9784 170.603 60.7689 178 67.17C186.688 74.6792 186.341 84.4876 185.778 94.3787C175.17 93.7832 164.86 93.2043 154.782 92.6254C154.782 89.8963 155.494 86.6048 154.617 83.8094C153.21 79.3601 151.29 74.8612 148.593 71.0735C143.678 64.1762 143.81 57.4774 147.749 50.4643C153.342 40.5071 159.151 30.6491 161.766 19.3686C162.577 15.829 163.338 12.2729 164.314 7.85663V7.87317Z" fill="#F0A743"/>
<path id="Vector_20" d="M327.139 211.566C318.335 213.485 310.259 213.154 302.25 211.616C298.394 210.872 294.554 209.664 290.98 208.06C282.209 204.074 274.05 205.628 266.736 210.987C257.452 217.785 248.085 215.784 238.652 212.956C241.714 202.734 244.643 192.925 247.671 182.786C255.002 186.855 262.383 184.903 269.681 181.662C276.781 178.519 283.053 180.239 288.547 185.152C297.368 193.058 305.857 201.378 316.664 206.67C319.825 208.225 323.035 209.648 327.156 211.55L327.139 211.566Z" fill="#F0A743"/>
<path id="Vector_21" d="M140.765 253.38C134.03 259.616 133.831 267.754 134.741 276.255C135.552 283.814 131.498 288.776 125.54 292.68C117.464 297.956 109.223 303.017 101.511 308.773C97.1422 312.048 93.6835 316.547 89.447 320.881C89.6621 318.879 89.6786 316.977 90.0924 315.158C92.2768 305.631 95.7025 296.534 102.289 289.206C109.604 281.068 110.514 272.186 107.154 262.312C103.927 252.785 108.412 245.226 112.88 238.13C122.297 243.274 131.299 248.203 140.765 253.364V253.38Z" fill="#F0A743"/>
<path id="Vector_22" d="M82.8439 171.787C84.5154 182.274 86.071 192.016 87.6928 202.205C85.6904 203.065 82.6619 203.776 80.3782 205.48C77.2504 207.812 74.4205 210.673 71.9382 213.7C67.0066 219.721 60.7346 221.176 53.6185 219.44C42.2329 216.644 30.9796 213.303 19.0809 213.65C15.3243 213.766 11.5842 213.667 7.79454 213.667C14.894 207.878 23.1519 203.743 32.4194 201.642C35.4644 200.948 38.5921 200.468 41.7033 200.203C51.1527 199.409 57.1765 193.852 61.0655 185.863C65.6331 176.484 73.9737 173.788 82.877 171.804L82.8439 171.787Z" fill="#F0A743"/>
<path id="Vector_23" d="M257.27 247.492C249.972 248.583 243.666 249.741 238.106 245.474C232.959 241.537 228.144 237.154 222.964 232.771C224.917 230.472 226.985 227.825 229.335 225.46C229.914 224.881 231.851 224.749 232.43 225.245C235.624 228.04 239.38 230.637 241.499 234.16C246.96 243.274 246.645 243.456 257.27 247.508V247.492Z" fill="#F0A743"/>
<path id="Vector_24" d="M215.037 68.4932C218.496 75.3243 220.399 81.9735 216.543 89.367C213.895 94.4283 212.273 100.002 210.022 105.808C206.696 104.038 202.493 101.805 198.289 99.5723C199.183 93.8494 201.119 88.6061 206.001 85.5958C212.521 81.5765 215.533 76.1678 215.053 68.4766L215.037 68.4932Z" fill="#F0A743"/>
<path id="Vector_25" d="M88.9505 145.604C88.0569 148.565 86.9646 151.36 86.402 154.254C85.6904 157.926 83.3073 158.588 80.4113 157.728C77.4655 156.868 74.1061 156.024 71.9713 154.056C66.3116 148.78 60.2381 147.043 52.5925 150.252C55.2403 146.265 62.6046 141.899 67.2714 142.329C74.4702 142.99 81.6028 144.463 88.934 145.604H88.9505Z" fill="#F0A743"/>
<path id="Vector_26" d="M115.032 70.6765C122.181 73.7695 128.453 76.7964 130.72 84.6695C131.978 89.0527 133.765 93.3035 135.585 98.3814C132.243 100.002 128.436 101.838 124.431 103.774C121.122 99.3738 119.649 94.4779 120.857 89.5158C122.561 82.5028 120.923 76.9618 115.66 72.2809C115.429 72.0659 115.396 71.6193 115.048 70.6765H115.032Z" fill="#F0A743"/>
<path id="Vector_27" d="M275.523 147.738C268.788 160.854 257.568 160.788 246.149 160.738C245.255 157.132 244.246 153.113 243.203 148.912C247.44 147.043 251.775 147.341 255.433 149.342C262.152 153.014 268.357 152.832 275.523 147.738Z" fill="#F0A743"/>
<path id="Vector_28" d="M96.0169 217.719C98.3668 220.878 100.783 224.137 103.315 227.561C100.568 231.597 96.2486 233.201 91.83 233.284C84.6974 233.416 80.0306 236.625 76.9029 242.695C76.7539 242.993 76.2906 243.125 75.5459 243.605C76.5885 235.93 78.0448 229.082 85.0781 224.914C88.785 222.714 92.2768 220.184 96.0169 217.719Z" fill="#F0A743"/>
</g>
</svg>
