<?xml version="1.0" encoding="UTF-8"?>
<svg id="Capa_2" data-name="Capa 2" xmlns="http://www.w3.org/2000/svg" viewBox="0 0 202.43 204.35">
  <defs>
    <style>
      .cls-1 {
        fill: #f0a743;
        stroke-width: 0px;
      }
    </style>
  </defs>
  <g id="Capa_1-2" data-name="Capa 1">
    <g>
      <path class="cls-1" d="m100.03,143.59c-19.83.38-37.41-16.61-38.13-36.2-.81-21.95,16.46-39.67,37.52-39.97,21.1-.3,38.16,16.29,38.61,37.64.45,21.02-16.42,38.12-38.01,38.53Zm-36.51-38.3c-.19,20.15,16.22,36.76,36.39,36.83,19.89.07,36.53-16.45,36.65-36.39.12-19.76-16.11-36.54-35.48-36.69-21.1-.16-37.37,15.54-37.56,36.25Z"/>
      <path class="cls-1" d="m18.05,35.6c3.48,1.49,7.29,2.5,10.36,4.6,3.94,2.7,8.04,5.76,10.69,9.61,3.5,5.08,7.77,7.63,13.59,7.17,8.48-.66,13.31,4.3,17.85,10.46-5.88,4.81-10.66,10.35-14.05,17.63-.82-1.23-1.39-2.06-1.94-2.91-2.91-4.5-6.3-7.92-12.24-8.38-5.38-.41-8.53-4.25-10.25-9.15-1.39-3.96-2.61-7.97-3.8-11.99-1.66-5.6-4.93-10.18-8.84-14.37-.6-.64-1.18-1.29-1.77-1.93.13-.25.26-.5.39-.75Zm50.29,31.23c-.55-.58-1.18-1.22-1.78-1.89-4.05-4.49-8.68-7.24-15.16-6.66-2.57.23-5.71-.78-7.85-2.29-2.74-1.93-4.73-4.91-7.02-7.46-3.95-4.4-8.75-7.52-14.66-9.91,1.48,2.23,2.71,3.94,3.8,5.74,3.75,6.21,5.6,13.14,7.52,20.04,1.22,4.39,3.9,7.39,8.67,7.99,4.4.55,8.25,2.12,11.25,5.53,1.11,1.27,2.43,2.35,3.35,3.22,3.88-4.67,7.79-9.39,11.88-14.33Z"/>
      <path class="cls-1" d="m185.85,41.34c-2.25,4.93-5.16,9.46-9.64,12.48-3.37,2.27-7.1,4.14-10.88,5.63-4.98,1.95-7.37,5.81-8.32,10.54-1.19,5.97-4.58,9.85-9.83,12.45-1.25.62-2.44,1.33-3.61,1.96-2.23-3.19-4.34-6.48-6.74-9.53-1.72-2.19-3.73-4.17-5.78-6.07-1.43-1.33-1.24-2.1.38-2.88,2.29-1.11,4.61-2.18,6.83-3.41,2.24-1.23,3.7-3.09,4.54-5.6,1.79-5.31,5.77-8.08,11.2-8.7,3.84-.43,7.71-.84,11.56-.76,6.85.14,12.93-2.04,18.76-5.32.5-.28,1.01-.53,1.52-.8Zm-3.89,3.67c-1.76.66-3.46,1.67-5.28,1.93-6.4.89-12.84,2.05-19.27,2.11-6.75.07-11.34,2.26-13.73,8.79-1.27,3.47-3.94,5.73-7.44,7.1-1.6.62-2.99,1.78-4,2.41,3.95,4.93,7.83,9.76,11.9,14.84,5.36-2.71,10.37-5.87,11.78-12.99.58-2.93,2.5-6.02,4.7-8.07,2.3-2.14,5.67-3.13,8.59-4.58,5.33-2.64,9.52-6.56,12.74-11.54Z"/>
      <path class="cls-1" d="m141.86,204.35c-4.24-4.07-8.13-8.21-10.03-13.67-1.26-3.61-2.03-7.43-2.63-11.22-.81-5.14-4.03-8.34-8.35-10.26-5.7-2.53-8.6-6.87-9.92-12.65-.29-1.27-.67-2.52-1.09-4.08,7.34-1.66,14.05-4.54,20.18-9.54.5,2.42.89,4.54,1.39,6.63.94,3.93,2.58,7.22,6.31,9.55,4.18,2.61,5.6,7.01,5.04,11.84-.45,3.92-.99,7.86-1.95,11.67-1.65,6.55-1.01,12.9.8,19.25.16.55.3,1.11.41,1.68.03.14-.07.31-.19.8Zm-12.24-58.4c-5.66,2.43-11.14,4.73-16.57,7.17-.47.21-.95,1.32-.81,1.87,1.39,5.65,3.52,10.63,9.51,13.21,4.84,2.08,7.8,5.93,8.62,11.46.54,3.62,1.54,7.27,2.97,10.63,1.4,3.29,3.59,6.24,5.44,9.34.28-3.72-.28-7.11.07-10.39.63-5.87,1.79-11.69,2.77-17.52.68-4.06.35-7.99-3.29-10.4-5.73-3.78-8.16-9.19-8.71-15.36Z"/>
      <path class="cls-1" d="m113.74,58.68c-7.23-.43-14.22-.85-21.41-1.28,0-1.6.33-3.84-.09-5.93-.43-2.16-1.19-4.49-2.51-6.2-3.35-4.35-4.1-8.92-2.03-13.88,1.49-3.56,3.08-7.12,5.08-10.4,3.66-5.99,4.93-12.48,4.93-19.35,0-.47.09-.94.73-1.64.97,1.97,2.01,3.91,2.9,5.92,2.85,6.44,3.67,13.18,2.09,20.02-1.25,5.42.56,9.71,4.42,13.04,5.04,4.37,6.78,9.68,6.09,16.08-.14,1.3-.15,2.61-.2,3.62Zm-14.46-53.92c-.59,2.67-1.04,4.82-1.54,6.96-1.58,6.83-5.1,12.78-8.47,18.8-2.37,4.23-2.45,8.29.51,12.46,1.63,2.29,2.79,5.01,3.64,7.7.53,1.69.1,3.68.1,5.33,6.09.34,12.32.7,18.73,1.06.34-5.98.55-11.91-4.7-16.45-4.47-3.87-6.4-8.57-5.29-14.69,1.28-7.09.21-14.04-2.98-21.16Z"/>
      <path class="cls-1" d="m202.43,127.55c-5.02,2.14-10.16,3.3-15.38,2.53-4.01-.6-8-1.84-11.79-3.32-4.33-1.7-8.19-1.02-12.06,1.05-2.38,1.27-4.66,2.9-7.2,3.7-4.82,1.53-9.38-.28-14.3-1.94,3.19-6.54,5.7-13.13,6-20.53,1.95.49,3.8,1,5.68,1.4,2.49.53,4.81.24,7.13-1.04,4.97-2.73,10.51-1.77,15.29,2.32,3.37,2.89,6.79,5.72,10.17,8.59,4.06,3.45,8.94,5.15,13.96,6.56.83.23,1.67.45,2.5.67Zm-4.76.36c-2.49-1.16-4.43-2.02-6.34-2.95-6.53-3.2-11.66-8.23-16.99-13.01-3.32-2.97-7.1-4.02-11.4-2.11-4.41,1.95-8.87,3.14-13.3.68-1.83,6.12-3.6,12.05-5.45,18.24,5.7,1.71,11.36,2.92,16.97-1.19,4.43-3.24,9.35-4.17,14.65-1.77,2.16.98,4.48,1.71,6.81,2.15,4.84.93,9.73,1.13,15.04-.03Z"/>
      <path class="cls-1" d="m67.57,142.11c6.56,3.58,12.63,6.89,18.89,10.31-.69,1.16-1.72,2.88-2.74,4.62-1.34,2.29-1.7,4.67-1.2,7.35,1.08,5.83-1.37,10.28-6.11,13.52-3.53,2.41-7.19,4.63-10.82,6.88-4.88,3.03-8.42,7.31-11.41,12.11-.45.73-.9,1.45-1.63,2.08-.23-5.16.06-10.28,2.21-14.91,1.74-3.76,4.02-7.39,6.67-10.57,3.78-4.54,3.72-9.37,2.05-14.39-2.31-6.93.58-12.27,4.08-16.99Zm17.48,11.08c-5.72-3.13-11.16-6.1-16.85-9.21-2.7,4.29-5.41,8.85-3.46,14.62,2.02,5.97,1.48,11.34-2.94,16.26-3.98,4.43-6.05,9.93-7.37,15.69-.25,1.1-.26,2.26-.39,3.46,2.56-2.62,4.65-5.34,7.29-7.32,4.66-3.49,9.64-6.54,14.52-9.73,3.6-2.35,6.05-5.36,5.56-9.93-.55-5.14-.43-10.07,3.64-13.83Z"/>
      <path class="cls-1" d="m0,131.51c3.51-3.56,7.33-6.88,12.04-8.61,3.96-1.46,8.21-2.43,12.4-2.87,4.77-.5,8.39-2.75,10.25-6.72,3.49-7.45,9.51-10.51,16.82-11.4.94,6.99,1.89,14.13,2.88,21.49-.72.19-2.18.32-3.35.97-1.75.97-3.7,2.01-4.85,3.56-3.88,5.19-8.64,7.11-15.11,5.63-4.25-.97-8.52-1.86-12.77-2.79-5.2-1.14-10.32-.43-15.42.66-.87.18-1.73.42-2.59.63-.1-.18-.21-.35-.31-.53Zm50.05-27.65c-5.38,1.2-10.42,2.83-13.18,8.5-2.35,4.83-5.98,8.19-11.7,8.67-1.88.16-3.77.45-5.61.87-5.6,1.27-10.59,3.77-14.88,7.27,2.29,0,4.55.06,6.82-.01,7.19-.21,13.99,1.82,20.87,3.5,4.3,1.05,8.09.17,11.07-3.47,1.5-1.83,3.21-3.56,5.1-4.97,1.38-1.03,3.21-1.46,4.42-1.98-.98-6.16-1.92-12.05-2.93-18.39Z"/>
      <path class="cls-1" d="m132.37,141.26c2.54-2.89,4.58-5.22,6.72-7.66,3.37,2.34,6.89,4.46,8.4,8.74,1.26,3.55,4.2,5.32,7.72,6.22,1.01.26,2.02.46,3.17.72-4.38,3.28-11.7,3.06-15.94-.28-2.37-1.87-4.81-3.63-7.2-5.46-.97-.74-1.92-1.53-2.86-2.29Zm23.08,8.37c-6.41-2.45-6.23-2.56-9.53-8.07-1.28-2.13-3.55-3.7-5.48-5.39-.35-.3-1.52-.22-1.87.13-1.42,1.43-2.67,3.04-3.85,4.42,3.14,2.65,6.04,5.3,9.15,7.68,3.36,2.58,7.17,1.88,11.58,1.22Z"/>
      <path class="cls-1" d="m128.99,37.97c4.24,3.65,5.95,10.77,3.39,15.43-2.01,3.67-3.52,7.35-3.75,11.53-.02.37-.29.73-.51,1.25-3.3-1.8-6.48-3.53-9.7-5.29.92-4.53,2.8-8.29,6.74-11.01,3.24-2.24,4.03-5.83,3.94-9.61-.02-.69-.07-1.38-.11-2.3Zm.95,3.45c.29,4.65-1.53,7.91-5.47,10.35-2.95,1.82-4.12,4.98-4.66,8.45,2.54,1.35,5.08,2.7,7.09,3.77,1.36-3.51,2.35-6.89,3.94-9.94,2.33-4.47,1.19-8.49-.91-12.62Z"/>
      <path class="cls-1" d="m28.87,92.2c2.78-5.54,9.53-8.42,15.48-7.03,2.59.6,5.3.78,7.97.88,2.41.09,3.17.83,2.54,3.09-.59,2.12-1.1,4.28-1.88,6.34-.22.57-1.27,1.17-1.92,1.16-3.08-.08-6.08-.69-8.47-2.83-3.59-3.22-7.61-3.52-11.97-2.03-.52.18-1.07.27-1.74.44Zm24.87-4.17c-4.44-.7-8.74-1.58-13.09-1.98-2.82-.26-7.27,2.38-8.87,4.79,4.61-1.93,8.28-.88,11.71,2.3,1.28,1.2,3.32,1.7,5.1,2.22,1.75.52,3.19.12,3.62-2.1.34-1.75,1-3.44,1.54-5.23Z"/>
      <path class="cls-1" d="m83.91,60.05c-2.94,1.39-6.17,2.91-9.52,4.49-1.63-3.71-3.22-7.42-2.26-11.84.78-3.57-.82-6.59-3.37-9.09-.69-.68-1.48-1.27-2.41-2.05,4.39-.96,11.1,2.83,12.99,7.04.4.9.66,1.86,1.03,2.77,1.14,2.84,2.31,5.67,3.54,8.68Zm-14.4-17.32c.21.57.23.84.37.97,3.19,2.83,4.17,6.18,3.14,10.42-.73,3,.15,5.96,2.16,8.62,2.42-1.17,4.72-2.28,6.74-3.26-1.1-3.07-2.18-5.64-2.94-8.29-1.36-4.76-5.16-6.59-9.48-8.46Z"/>
      <path class="cls-1" d="m147.64,98.95c-.32-1.45-.67-3.13-1.07-4.79-.4-1.66-.87-3.31-1.49-5.67,3.07.15,6.1-.43,8.44.57,5.42,2.31,10.21,2.14,15.22-2.09-.24,1.12-.24,1.64-.45,2.07-2.9,5.84-7.13,9.54-14.15,9.17-2.07-.11-4.17.46-6.49.74Zm18.83-9.63c-4.34,3.08-8.08,3.2-12.14.97-2.21-1.21-4.83-1.39-7.39-.26.63,2.54,1.24,4.97,1.78,7.15,6.9.02,13.69.07,17.75-7.86Z"/>
      <path class="cls-1" d="m57.82,129.01c2.15,2.99,4.19,5.82,6.65,9.25-2.47,1.22-4.74,3.09-7.21,3.4-5.78.74-9.91,3.22-11.99,8.94-2.04-3.87-.14-11.28,3.47-14.25.76-.62,1.59-1.17,2.43-1.69,1.25-.78,2.67-1.36,3.78-2.3,1.09-.92,1.89-2.18,2.87-3.35Zm.19,2.62c-2.26,1.5-4.38,3.03-6.61,4.35-4.25,2.52-5.13,6.66-5.76,11.3.45-.3.73-.38.82-.55,1.89-3.67,4.71-5.62,9.02-5.69,2.67-.05,5.29-1.03,6.94-3.46-1.53-2.07-2.99-4.04-4.41-5.95Z"/>
      <path class="cls-1" d="m63.52,105.29c.19-20.71,16.46-36.41,37.56-36.25,19.38.15,35.6,16.92,35.48,36.69-.12,19.93-16.76,36.46-36.65,36.39-20.17-.07-36.58-16.67-36.39-36.83Z"/>
      <path class="cls-1" d="m68.34,66.83c-4.09,4.93-8.01,9.65-11.88,14.33-.91-.87-2.24-1.95-3.35-3.22-3-3.42-6.85-4.98-11.25-5.53-4.77-.6-7.45-3.6-8.67-7.99-1.92-6.91-3.76-13.83-7.52-20.04-1.09-1.8-2.32-3.51-3.8-5.74,5.91,2.39,10.71,5.51,14.66,9.91,2.29,2.55,4.29,5.53,7.02,7.46,2.14,1.5,5.28,2.52,7.85,2.29,6.48-.58,11.11,2.17,15.16,6.66.6.67,1.23,1.31,1.78,1.89Z"/>
      <path class="cls-1" d="m181.96,45.01c-3.22,4.98-7.41,8.9-12.74,11.54-2.93,1.45-6.29,2.44-8.59,4.58-2.21,2.05-4.13,5.14-4.7,8.07-1.41,7.12-6.42,10.28-11.78,12.99-4.07-5.08-7.95-9.91-11.9-14.84,1.02-.63,2.41-1.79,4-2.41,3.51-1.37,6.18-3.63,7.44-7.1,2.38-6.53,6.98-8.72,13.73-8.79,6.43-.07,12.86-1.22,19.27-2.11,1.81-.25,3.52-1.26,5.28-1.93Z"/>
      <path class="cls-1" d="m129.63,145.95c.55,6.17,2.98,11.58,8.71,15.36,3.64,2.4,3.98,6.34,3.29,10.4-.98,5.83-2.14,11.65-2.77,17.52-.35,3.28.21,6.67-.07,10.39-1.85-3.1-4.04-6.05-5.44-9.34-1.43-3.37-2.43-7.01-2.97-10.63-.82-5.52-3.78-9.38-8.62-11.46-6-2.57-8.12-7.55-9.51-13.21-.13-.54.34-1.66.81-1.87,5.43-2.43,10.91-4.74,16.57-7.17Z"/>
      <path class="cls-1" d="m99.28,4.76c3.19,7.13,4.26,14.08,2.98,21.16-1.11,6.11.82,10.82,5.29,14.69,5.25,4.54,5.04,10.47,4.7,16.45-6.41-.36-12.64-.71-18.73-1.06,0-1.65.43-3.64-.1-5.33-.85-2.69-2.01-5.41-3.64-7.7-2.97-4.17-2.89-8.22-.51-12.46,3.38-6.02,6.89-11.98,8.47-18.8.49-2.14.95-4.29,1.54-6.96Z"/>
      <path class="cls-1" d="m197.67,127.91c-5.32,1.16-10.2.96-15.04.03-2.33-.45-4.65-1.18-6.81-2.15-5.3-2.41-10.23-1.47-14.65,1.77-5.61,4.11-11.27,2.9-16.97,1.19,1.85-6.18,3.62-12.11,5.45-18.24,4.43,2.46,8.89,1.28,13.3-.68,4.29-1.9,8.08-.86,11.4,2.11,5.33,4.78,10.46,9.81,16.99,13.01,1.91.94,3.85,1.8,6.34,2.95Z"/>
      <path class="cls-1" d="m85.05,153.19c-4.07,3.77-4.19,8.69-3.64,13.83.49,4.57-1.96,7.57-5.56,9.93-4.88,3.19-9.86,6.25-14.52,9.73-2.64,1.98-4.73,4.7-7.29,7.32.13-1.21.14-2.36.39-3.46,1.32-5.76,3.39-11.26,7.37-15.69,4.42-4.92,4.97-10.29,2.94-16.26-1.95-5.76.76-10.33,3.46-14.62,5.69,3.11,11.13,6.09,16.85,9.21Z"/>
      <path class="cls-1" d="m50.05,103.86c1.01,6.34,1.95,12.23,2.93,18.39-1.21.52-3.04.95-4.42,1.98-1.89,1.41-3.6,3.14-5.1,4.97-2.98,3.64-6.77,4.52-11.07,3.47-6.88-1.69-13.68-3.71-20.87-3.5-2.27.07-4.53.01-6.82.01,4.29-3.5,9.28-6,14.88-7.27,1.84-.42,3.73-.71,5.61-.87,5.71-.48,9.35-3.84,11.7-8.67,2.76-5.67,7.8-7.3,13.18-8.5Z"/>
      <path class="cls-1" d="m155.45,149.63c-4.41.66-8.22,1.36-11.58-1.22-3.11-2.38-6.02-5.03-9.15-7.68,1.18-1.39,2.43-2.99,3.85-4.42.35-.35,1.52-.43,1.87-.13,1.93,1.69,4.2,3.26,5.48,5.39,3.3,5.51,3.11,5.62,9.53,8.07Z"/>
      <path class="cls-1" d="m129.93,41.41c2.09,4.13,3.24,8.15.91,12.62-1.6,3.06-2.58,6.43-3.94,9.94-2.01-1.07-4.55-2.42-7.09-3.77.54-3.46,1.71-6.63,4.66-8.45,3.94-2.43,5.76-5.7,5.47-10.35Z"/>
      <path class="cls-1" d="m53.74,88.03c-.54,1.79-1.2,3.48-1.54,5.23-.43,2.22-1.87,2.62-3.62,2.1-1.78-.52-3.81-1.03-5.1-2.22-3.42-3.19-7.09-4.24-11.71-2.3,1.6-2.41,6.05-5.05,8.87-4.79,4.35.4,8.66,1.29,13.09,1.98Z"/>
      <path class="cls-1" d="m69.5,42.73c4.32,1.87,8.11,3.7,9.48,8.46.76,2.65,1.84,5.22,2.94,8.29-2.02.98-4.32,2.09-6.74,3.26-2-2.66-2.89-5.62-2.16-8.62,1.03-4.24.04-7.59-3.14-10.42-.14-.13-.16-.4-.37-.97Z"/>
      <path class="cls-1" d="m166.48,89.32c-4.07,7.93-10.85,7.89-17.75,7.86-.54-2.18-1.15-4.61-1.78-7.15,2.56-1.13,5.18-.95,7.39.26,4.06,2.22,7.81,2.11,12.14-.97Z"/>
      <path class="cls-1" d="m58.01,131.63c1.42,1.91,2.88,3.88,4.41,5.95-1.66,2.44-4.27,3.41-6.94,3.46-4.31.08-7.13,2.02-9.02,5.69-.09.18-.37.26-.82.55.63-4.64,1.51-8.78,5.76-11.3,2.24-1.33,4.35-2.86,6.61-4.35Z"/>
    </g>
  </g>
</svg>