<svg width="250" height="253" viewBox="0 0 250 253" fill="none" xmlns="http://www.w3.org/2000/svg">
<g id="sol1">
<path id="Vector" d="M123.543 177.232C99.0539 177.701 77.3438 156.73 76.4546 132.551C75.4543 105.458 96.7816 83.5864 122.789 83.2161C148.846 82.8458 169.914 103.323 170.47 129.675C171.026 155.619 150.192 176.726 123.53 177.232H123.543ZM78.4552 129.959C78.2206 154.829 98.4858 175.331 123.394 175.417C147.957 175.504 168.507 155.113 168.655 130.502C168.803 106.112 148.76 85.4008 124.839 85.2157C98.7822 85.0182 78.6898 104.396 78.4552 129.959Z" fill="#F0A743"/>
<path id="Vector_2" d="M22.3029 43.94C26.6005 45.7791 31.3056 47.0257 35.0968 49.6177C39.9625 52.9503 45.0257 56.7272 48.2983 61.4792C52.6206 67.7493 57.8937 70.8968 65.0811 70.329C75.5533 69.5144 81.5181 75.6364 87.1247 83.2396C79.8633 89.1765 73.9603 96.0144 69.7738 105C68.7612 103.482 68.0573 102.457 67.3781 101.408C63.7844 95.854 59.598 91.6327 52.2624 91.065C45.6185 90.5589 41.7284 85.8192 39.6043 79.7713C37.8878 74.8835 36.3812 69.934 34.9116 64.9722C32.8616 58.0602 28.8233 52.4072 23.9947 47.2356C23.2538 46.4456 22.5375 45.6433 21.8089 44.8534C21.9694 44.5448 22.13 44.2362 22.2905 43.9277L22.3029 43.94ZM84.4078 82.4867C83.7286 81.7708 82.9506 80.9809 82.2096 80.1539C77.2081 74.612 71.4904 71.2177 63.488 71.9336C60.3142 72.2174 56.4365 70.9708 53.7938 69.1071C50.41 66.7249 47.9525 63.0467 45.1245 59.8993C40.2465 54.4685 34.3188 50.6175 27.0203 47.6676C28.848 50.42 30.367 52.5306 31.7131 54.7523C36.3441 62.4172 38.6287 70.9708 40.9998 79.4874C42.5064 84.9059 45.8161 88.6087 51.7067 89.3493C57.1404 90.0282 61.8949 91.966 65.5997 96.1749C66.9705 97.7424 68.6006 99.0755 69.7368 100.149C74.5283 94.3852 79.3569 88.5594 84.4078 82.462V82.4867Z" fill="#F0A743"/>
<path id="Vector_3" d="M229.525 51.026C226.746 57.111 223.153 62.7023 217.62 66.4299C213.459 69.2317 208.852 71.5398 204.184 73.3789C198.034 75.7858 195.083 80.5501 193.91 86.3883C192.44 93.757 188.254 98.546 181.77 101.755C180.226 102.52 178.757 103.397 177.312 104.174C174.558 100.237 171.952 96.1762 168.989 92.4116C166.864 89.7085 164.382 87.2646 161.851 84.9195C160.085 83.2779 160.319 82.3275 162.32 81.3647C165.148 79.9947 168.013 78.674 170.755 77.1558C173.521 75.6377 175.324 73.3419 176.361 70.2438C178.572 63.6898 183.487 60.2708 190.192 59.5055C194.935 58.9748 199.714 58.4688 204.468 58.5675C212.927 58.7403 220.436 56.0496 227.636 52.0011C228.253 51.6555 228.883 51.3469 229.513 51.0137L229.525 51.026ZM224.721 55.5558C222.548 56.3705 220.448 57.6171 218.201 57.938C210.297 59.0365 202.344 60.4683 194.403 60.5423C186.068 60.6287 180.399 63.3318 177.448 71.3917C175.879 75.6747 172.582 78.4642 168.26 80.1551C166.284 80.9204 164.568 82.3522 163.32 83.1298C168.198 89.2148 172.99 95.1764 178.016 101.447C184.635 98.1016 190.822 94.2013 192.563 85.4132C193.28 81.7967 195.651 77.9828 198.368 75.4525C201.208 72.8111 205.37 71.5892 208.976 69.7995C215.558 66.541 220.732 61.7026 224.709 55.5558H224.721Z" fill="#F0A743"/>
<path id="Vector_4" d="M175.201 252.225C169.965 247.202 165.161 242.092 162.814 235.353C161.258 230.897 160.307 226.182 159.567 221.504C158.566 215.16 154.59 211.21 149.255 208.84C142.216 205.717 138.634 200.361 137.004 193.227C136.646 191.659 136.177 190.116 135.658 188.191C144.723 186.142 153.009 182.587 160.579 176.416C161.197 179.402 161.678 182.019 162.296 184.599C163.457 189.45 165.482 193.51 170.088 196.386C175.25 199.608 177.004 205.039 176.312 211C175.756 215.839 175.09 220.702 173.904 225.404C171.866 233.489 172.657 241.327 174.892 249.164C175.09 249.843 175.263 250.534 175.398 251.238C175.435 251.411 175.312 251.621 175.164 252.225H175.201ZM160.085 180.143C153.095 183.142 146.328 185.981 139.622 188.993C139.042 189.252 138.449 190.622 138.622 191.301C140.339 198.275 142.969 204.421 150.366 207.606C156.343 210.173 159.999 214.925 161.011 221.751C161.678 226.219 162.913 230.724 164.679 234.871C166.408 238.932 169.113 242.573 171.397 246.4C171.743 241.808 171.051 237.624 171.484 233.575C172.262 226.33 173.694 219.147 174.904 211.951C175.744 206.939 175.337 202.089 170.841 199.114C163.765 194.448 160.764 187.771 160.085 180.155V180.143Z" fill="#F0A743"/>
<path id="Vector_5" d="M140.473 72.4279C131.545 71.8972 122.912 71.3788 114.033 70.848C114.033 68.8732 114.441 66.1084 113.922 63.5287C113.391 60.8626 112.453 57.9868 110.822 55.8761C106.685 50.507 105.759 44.8663 108.315 38.7442C110.156 34.3502 112.119 29.9561 114.589 25.9077C119.109 18.5143 120.677 10.5038 120.677 2.02423C120.677 1.44411 120.788 0.864 121.579 0C122.777 2.43154 124.061 4.82606 125.16 7.30697C128.68 15.2558 129.692 23.5749 127.741 32.0174C126.197 38.7072 128.433 44.0023 133.199 48.1125C139.424 53.5063 141.572 60.0604 140.72 67.9598C140.547 69.5644 140.535 71.1813 140.473 72.4279ZM122.616 5.8752C121.887 9.17075 121.332 11.8245 120.714 14.4658C118.763 22.896 114.416 30.24 110.254 37.6704C107.328 42.8914 107.229 47.9026 110.884 53.0496C112.897 55.8761 114.33 59.2334 115.379 62.5536C116.034 64.6396 115.503 67.0958 115.503 69.1324C123.024 69.552 130.717 69.9964 138.633 70.4407C139.053 63.0597 139.312 55.7404 132.829 50.1367C127.309 45.36 124.925 39.5589 126.296 32.005C127.877 23.2539 126.555 14.6757 122.616 5.88754V5.8752Z" fill="#F0A743"/>
<path id="Vector_6" d="M250 157.434C243.801 160.075 237.453 161.507 231.007 160.557C226.055 159.816 221.127 158.286 216.447 156.459C211.1 154.361 206.333 155.2 201.553 157.755C198.614 159.323 195.799 161.334 192.662 162.322C186.71 164.21 181.078 161.976 175.002 159.927C178.942 151.855 182.042 143.721 182.412 134.587C184.82 135.192 187.105 135.822 189.426 136.315C192.501 136.97 195.366 136.612 198.232 135.032C204.369 131.662 211.211 132.847 217.114 137.895C221.275 141.462 225.499 144.955 229.673 148.498C234.687 152.756 240.713 154.854 246.913 156.595C247.938 156.879 248.975 157.15 250 157.422V157.434ZM244.122 157.878C241.047 156.447 238.651 155.385 236.292 154.237C228.228 150.288 221.893 144.079 215.311 138.179C211.211 134.513 206.543 133.217 201.232 135.575C195.786 137.982 190.279 139.45 184.808 136.414C182.548 143.968 180.362 151.287 178.077 158.928C185.117 161.038 192.106 162.532 199.034 157.459C204.505 153.46 210.581 152.312 217.126 155.274C219.793 156.484 222.659 157.385 225.536 157.928C231.513 159.076 237.552 159.323 244.109 157.891L244.122 157.878Z" fill="#F0A743"/>
<path id="Vector_7" d="M83.4568 175.404C91.558 179.823 99.054 183.908 106.785 188.13C105.933 189.561 104.661 191.684 103.401 193.832C101.746 196.659 101.302 199.596 101.919 202.904C103.253 210.1 100.227 215.592 94.3736 219.592C90.0143 222.566 85.4945 225.306 81.0116 228.083C74.9852 231.823 70.6135 237.106 66.921 243.031C66.3653 243.932 65.8096 244.82 64.9081 245.598C64.6241 239.229 64.9822 232.91 67.6373 227.195C69.7861 222.554 72.6017 218.073 75.8743 214.148C80.5424 208.545 80.4683 202.583 78.4059 196.387C75.5532 187.833 79.1222 181.242 83.4445 175.417L83.4568 175.404ZM105.043 189.08C97.9797 185.217 91.2616 181.551 84.2348 177.712C80.9005 183.007 77.5538 188.636 79.9619 195.758C82.4565 203.126 81.7897 209.754 76.3312 215.827C71.4162 221.295 68.8599 228.083 67.2298 235.193C66.921 236.551 66.9087 237.982 66.7481 239.464C69.9096 236.23 72.4906 232.872 75.7508 230.429C81.5056 226.121 87.6556 222.356 93.6821 218.419C98.1278 215.518 101.153 211.803 100.548 206.163C99.8691 199.818 100.017 193.733 105.043 189.092V189.08Z" fill="#F0A743"/>
<path id="Vector_8" d="M0.0123493 162.32C4.34696 157.926 9.06441 153.828 14.8809 151.693C19.7713 149.891 25.0197 148.694 30.1941 148.151C36.0847 147.534 40.5552 144.756 42.8522 139.856C47.1621 130.661 54.5964 126.884 63.6237 125.785C64.7846 134.413 65.9578 143.226 67.1804 152.31C66.2912 152.545 64.4882 152.705 63.0433 153.508C60.8822 154.705 58.4741 155.988 57.0539 157.902C52.2624 164.308 46.3841 166.677 38.3941 164.851C33.1456 163.653 27.8724 162.555 22.624 161.407C16.2023 160 9.87946 160.876 3.58131 162.222C2.50691 162.444 1.44487 162.74 0.382829 162.999C0.259336 162.777 0.123493 162.567 0 162.345L0.0123493 162.32ZM61.8207 128.192C55.1768 129.673 48.9527 131.685 45.5443 138.684C42.6422 144.645 38.1594 148.793 31.0956 149.385C28.7739 149.582 26.4399 149.94 24.1676 150.459C17.252 152.026 11.0897 155.112 5.79184 159.432C8.61983 159.432 11.4108 159.506 14.2141 159.42C23.0932 159.161 31.4908 161.666 39.9871 163.74C45.2973 165.036 49.9777 163.95 53.6578 159.457C55.5102 157.198 57.622 155.063 59.956 153.322C61.6602 152.051 63.9201 151.52 65.4144 150.878C64.2042 143.275 63.0433 136.005 61.796 128.18L61.8207 128.192Z" fill="#F0A743"/>
<path id="Vector_9" d="M163.48 174.355C166.617 170.788 169.136 167.912 171.779 164.9C175.94 167.788 180.287 170.405 182.152 175.688C183.708 180.07 187.339 182.254 191.686 183.365C192.933 183.686 194.18 183.933 195.601 184.254C190.192 188.302 181.152 188.031 175.916 183.908C172.989 181.6 169.976 179.428 167.024 177.169C165.826 176.256 164.653 175.281 163.492 174.343L163.48 174.355ZM191.982 184.686C184.066 181.662 184.289 181.526 180.213 174.725C178.633 172.096 175.829 170.158 173.446 168.072C173.014 167.702 171.569 167.801 171.137 168.233C169.383 169.998 167.839 171.985 166.382 173.688C170.26 176.959 173.841 180.23 177.682 183.168C181.831 186.352 186.536 185.488 191.982 184.674V184.686Z" fill="#F0A743"/>
<path id="Vector_10" d="M159.306 46.8666C164.542 51.3717 166.654 60.1598 163.492 65.9116C161.01 70.4414 159.145 74.9836 158.861 80.1429C158.837 80.5995 158.503 81.0439 158.232 81.6857C154.156 79.464 150.229 77.3287 146.253 75.1564C147.389 69.565 149.711 64.9241 154.576 61.5669C158.577 58.8021 159.553 54.371 159.442 49.7054C159.417 48.8538 159.355 48.0021 159.306 46.8666ZM160.479 51.1249C160.837 56.8643 158.59 60.888 153.724 63.8997C150.081 66.1461 148.636 70.0464 147.969 74.3294C151.106 75.9957 154.243 77.662 156.725 78.9826C158.404 74.6503 159.627 70.4784 161.591 66.7139C164.468 61.1966 163.06 56.2348 160.467 51.1372L160.479 51.1249Z" fill="#F0A743"/>
<path id="Vector_11" d="M35.6646 113.801C39.0977 106.963 47.4335 103.408 54.7813 105.124C57.9798 105.865 61.3264 106.087 64.6237 106.21C67.5999 106.321 68.5384 107.235 67.7604 110.024C67.0318 112.641 66.402 115.307 65.4388 117.85C65.1671 118.553 63.8704 119.294 63.0677 119.281C59.2641 119.183 55.5593 118.43 52.6078 115.788C48.1744 111.814 43.21 111.444 37.8257 113.283C37.1835 113.505 36.5043 113.616 35.6769 113.826L35.6646 113.801ZM66.3773 108.654C60.8942 107.79 55.584 106.704 50.2121 106.21C46.7295 105.889 41.2341 109.148 39.2582 112.123C44.9512 109.74 49.4834 111.036 53.7193 114.961C55.3 116.443 57.8192 117.06 60.0174 117.702C62.1785 118.343 63.9568 117.85 64.4879 115.11C64.9077 112.95 65.7228 110.864 66.3897 108.654H66.3773Z" fill="#F0A743"/>
<path id="Vector_12" d="M103.636 74.118C100.005 75.8337 96.0161 77.7098 91.879 79.66C89.8661 75.0808 87.9025 70.5016 89.0881 65.046C90.0513 60.6396 88.0754 56.9121 84.9264 53.8264C84.0743 52.987 83.0987 52.2588 81.9502 51.2961C87.3715 50.1112 95.6579 54.7891 97.9919 59.9854C98.4859 61.0963 98.807 62.2812 99.2639 63.4044C100.672 66.9098 102.117 70.4028 103.636 74.118ZM85.8526 52.7402C86.1119 53.4437 86.1366 53.777 86.3095 53.9374C90.2489 57.4305 91.4591 61.5653 90.1872 66.7987C89.2857 70.5016 90.3724 74.1551 92.8546 77.4383C95.8432 75.9941 98.6835 74.6241 101.178 73.4145C99.8196 69.6252 98.4859 66.4531 97.5474 63.1823C95.8679 57.307 91.1751 55.0483 85.8402 52.7402H85.8526Z" fill="#F0A743"/>
<path id="Vector_13" d="M182.339 122.133C181.944 120.343 181.512 118.269 181.018 116.221C180.524 114.172 179.943 112.135 179.178 109.222C182.969 109.407 186.711 108.691 189.6 109.926C196.294 112.777 202.209 112.567 208.396 107.346C208.1 108.728 208.1 109.37 207.84 109.901C204.259 117.109 199.035 121.676 190.366 121.219C187.81 121.084 185.216 121.787 182.351 122.133H182.339ZM205.593 110.247C200.233 114.048 195.615 114.196 190.601 111.444C187.872 109.95 184.636 109.728 181.475 111.123C182.253 114.258 183.006 117.257 183.673 119.948C192.194 119.973 200.579 120.035 205.593 110.247Z" fill="#F0A743"/>
<path id="Vector_14" d="M71.4161 159.234C74.0712 162.925 76.5905 166.418 79.6284 170.651C76.5782 172.157 73.7749 174.465 70.7246 174.848C63.5867 175.761 58.4864 178.822 55.9177 185.882C53.3985 181.106 55.7448 171.96 60.2029 168.294C61.1415 167.529 62.1665 166.85 63.2038 166.208C64.7475 165.245 66.5011 164.529 67.8719 163.369C69.218 162.234 70.2059 160.678 71.4161 159.234ZM71.6508 162.468C68.8598 164.32 66.2418 166.208 63.4879 167.837C58.2394 170.948 57.1527 176.058 56.3746 181.785C56.9304 181.414 57.2761 181.316 57.3873 181.106C59.7213 176.576 63.2038 174.169 68.5264 174.083C71.8237 174.021 75.0592 172.811 77.0968 169.812C75.2074 167.257 73.4044 164.826 71.6508 162.468Z" fill="#F0A743"/>
<path id="Vector_15" d="M84.4072 82.4862C79.3563 88.5712 74.5154 94.3971 69.7362 100.173C68.6124 99.0997 66.9699 97.7666 65.5991 96.1991C61.8943 91.9779 57.1398 90.0524 51.7061 89.3735C45.8155 88.6329 42.5059 84.9301 40.9993 79.5116C38.6282 70.9827 36.3559 62.4415 31.7126 54.7766C30.3665 52.5549 28.8475 50.4442 27.0198 47.6918C34.3183 50.6417 40.2459 54.4927 45.1239 59.9235C47.9519 63.0709 50.4218 66.7491 53.7932 69.1313C56.4359 70.9827 60.3136 72.2417 63.4874 71.9578C71.4898 71.2419 77.2075 74.6362 82.209 80.1781C82.95 81.0051 83.728 81.795 84.4072 82.5109V82.4862Z" fill="#F0A743"/>
<path id="Vector_16" d="M224.722 55.5547C220.745 61.7015 215.571 66.5399 208.989 69.7984C205.37 71.5881 201.221 72.8101 198.381 75.4514C195.651 77.9817 193.28 81.7957 192.576 85.4121C190.835 94.2002 184.648 98.1006 178.029 101.445C173.003 95.1753 168.211 89.2137 163.333 83.1287C164.593 82.3511 166.309 80.9193 168.273 80.1541C172.607 78.4631 175.905 75.6736 177.461 71.3906C180.4 63.3308 186.081 60.6277 194.416 60.5413C202.357 60.4549 210.298 59.0354 218.214 57.9369C220.449 57.6283 222.561 56.3817 224.734 55.5547H224.722Z" fill="#F0A743"/>
<path id="Vector_17" d="M160.096 180.144C160.775 187.76 163.776 194.437 170.852 199.103C175.347 202.065 175.767 206.928 174.915 211.94C173.705 219.135 172.272 226.319 171.494 233.564C171.062 237.613 171.754 241.797 171.408 246.388C169.123 242.562 166.419 238.921 164.69 234.86C162.924 230.701 161.689 226.208 161.022 221.74C160.01 214.927 156.354 210.162 150.377 207.595C142.967 204.423 140.349 198.276 138.633 191.29C138.472 190.623 139.053 189.241 139.633 188.982C146.339 185.983 153.106 183.131 160.096 180.132V180.144Z" fill="#F0A743"/>
<path id="Vector_18" d="M122.616 5.87587C126.555 14.6763 127.877 23.2546 126.296 31.9934C124.925 39.5349 127.309 45.3483 132.829 50.125C139.312 55.7287 139.053 63.048 138.633 70.429C130.717 69.9847 123.023 69.5527 115.503 69.1207C115.503 67.0841 116.034 64.6279 115.379 62.5419C114.33 59.2217 112.897 55.8645 110.884 53.0379C107.216 47.891 107.315 42.8921 110.254 37.6587C114.428 30.2283 118.763 22.872 120.714 14.4542C121.319 11.8128 121.887 9.15907 122.616 5.86353V5.87587Z" fill="#F0A743"/>
<path id="Vector_19" d="M244.123 157.876C237.553 159.308 231.526 159.061 225.549 157.914C222.672 157.358 219.807 156.457 217.139 155.26C210.594 152.285 204.506 153.445 199.047 157.444C192.119 162.517 185.13 161.024 178.091 158.913C180.375 151.285 182.561 143.966 184.821 136.4C190.292 139.436 195.8 137.98 201.246 135.561C206.544 133.215 211.224 134.499 215.324 138.165C221.906 144.065 228.241 150.273 236.305 154.223C238.664 155.383 241.06 156.445 244.135 157.864L244.123 157.876Z" fill="#F0A743"/>
<path id="Vector_20" d="M105.043 189.08C100.017 193.733 99.8688 199.805 100.548 206.15C101.153 211.79 98.1275 215.493 93.6818 218.406C87.6553 222.343 81.5053 226.12 75.7506 230.416C72.4903 232.86 69.9093 236.217 66.7479 239.451C66.9084 237.957 66.9208 236.538 67.2295 235.18C68.8596 228.071 71.4159 221.282 76.331 215.814C81.7894 209.741 82.4686 203.113 79.9617 195.745C77.5536 188.635 80.9002 182.995 84.2345 177.699C91.2613 181.538 97.9793 185.216 105.043 189.067V189.08Z" fill="#F0A743"/>
<path id="Vector_21" d="M61.8214 128.194C63.0687 136.019 64.2296 143.289 65.4398 150.892C63.9455 151.534 61.6856 152.065 59.9814 153.336C57.6474 155.076 55.5356 157.212 53.6832 159.47C50.0031 163.963 45.3227 165.049 40.0125 163.753C31.5161 161.667 23.1185 159.174 14.2393 159.433C11.436 159.52 8.64508 159.446 5.81708 159.446C11.115 155.126 17.2773 152.04 24.1929 150.472C26.4652 149.954 28.7992 149.596 31.1209 149.399C38.1724 148.806 42.6676 144.659 45.5697 138.697C48.9781 131.699 55.2022 129.687 61.8461 128.206L61.8214 128.194Z" fill="#F0A743"/>
<path id="Vector_22" d="M191.983 184.685C186.537 185.5 181.832 186.364 177.683 183.179C173.842 180.242 170.248 176.971 166.383 173.7C167.84 171.984 169.384 170.009 171.137 168.244C171.57 167.812 173.015 167.714 173.447 168.084C175.83 170.17 178.633 172.108 180.214 174.737C184.289 181.538 184.055 181.673 191.983 184.697V184.685Z" fill="#F0A743"/>
<path id="Vector_23" d="M160.468 51.1113C163.049 56.2089 164.469 61.1707 161.591 66.688C159.616 70.4649 158.405 74.6244 156.726 78.9567C154.244 77.6361 151.107 75.9698 147.97 74.3035C148.637 70.0329 150.082 66.1202 153.725 63.8738C158.591 60.8745 160.838 56.8384 160.48 51.0989L160.468 51.1113Z" fill="#F0A743"/>
<path id="Vector_24" d="M66.3779 108.655C65.7111 110.864 64.896 112.95 64.4761 115.11C63.9451 117.85 62.1668 118.344 60.0057 117.702C57.8075 117.06 55.3006 116.431 53.7075 114.962C49.484 111.025 44.9518 109.729 39.2464 112.123C41.2223 109.148 46.7178 105.89 50.2003 106.211C55.5722 106.705 60.8948 107.803 66.3656 108.655H66.3779Z" fill="#F0A743"/>
<path id="Vector_25" d="M85.8404 52.7421C91.1753 55.0502 95.8557 57.3089 97.5476 63.1841C98.4861 66.455 99.8198 69.6271 101.178 73.4163C98.6837 74.6259 95.8434 75.996 92.8548 77.4401C90.3849 74.1569 89.2859 70.5034 90.1874 66.8006C91.4593 61.5672 90.2368 57.4323 86.3097 53.9393C86.1368 53.7789 86.1121 53.4456 85.8527 52.7421H85.8404Z" fill="#F0A743"/>
<path id="Vector_26" d="M205.603 110.245C200.577 120.033 192.204 119.984 183.683 119.947C183.017 117.256 182.263 114.257 181.485 111.122C184.647 109.727 187.882 109.949 190.611 111.443C195.625 114.183 200.256 114.047 205.603 110.245Z" fill="#F0A743"/>
<path id="Vector_27" d="M71.6512 162.468C73.4048 164.826 75.2078 167.257 77.0973 169.812C75.0473 172.824 71.8241 174.021 68.5268 174.083C63.2043 174.182 59.7218 176.576 57.3877 181.106C57.2766 181.328 56.9308 181.427 56.3751 181.785C57.1531 176.058 58.2398 170.948 63.4883 167.838C66.2546 166.196 68.8603 164.307 71.6512 162.468Z" fill="#F0A743"/>
<path id="Vector_28" d="M71.6528 129.807C71.9226 100.413 95.0274 78.1292 124.991 78.3563C152.513 78.5692 175.546 102.371 175.376 130.431C175.206 158.718 151.575 182.18 123.33 182.08C94.6866 181.981 71.383 158.42 71.6528 129.807Z" fill="#F0A743"/>
</g>
</svg>
