<svg width="250" height="253" viewBox="0 0 250 253" fill="none" xmlns="http://www.w3.org/2000/svg">
<g id="sol2">
<path id="Vector" d="M123.543 177.231C99.054 177.7 77.3439 156.73 76.4547 132.55C75.4544 105.457 96.7817 83.5858 122.789 83.2155C148.847 82.8452 169.915 103.322 170.47 129.674C171.026 155.619 150.193 176.725 123.53 177.231H123.543ZM78.4553 129.958C78.2207 154.829 98.486 175.33 123.395 175.417C147.957 175.503 168.507 155.113 168.655 130.501C168.803 106.112 148.76 85.4002 124.839 85.2151C98.7823 85.0176 78.6899 104.396 78.4553 129.958Z" fill="#5F388A"/>
<path id="Vector_2" d="M22.3032 43.9407C26.6008 45.7798 31.3059 47.0265 35.0971 49.6185C39.9627 52.951 45.026 56.728 48.2986 61.48C52.6208 67.7502 57.894 70.8976 65.0813 70.3298C75.5536 69.5152 81.5183 75.6372 87.1249 83.2405C79.8635 89.1774 73.9605 96.0153 69.7741 105.001C68.7614 103.483 68.0575 102.458 67.3783 101.409C63.7846 95.8549 59.5982 91.6336 52.2627 91.0658C45.6188 90.5598 41.7287 85.8201 39.6046 79.7721C37.8881 74.8843 36.3814 69.9348 34.9119 64.973C32.8619 58.061 28.8236 52.408 23.995 47.2363C23.2541 46.4464 22.5378 45.6441 21.8092 44.8541C21.9697 44.5455 22.1303 44.237 22.2908 43.9284L22.3032 43.9407ZM84.4081 82.4875C83.7288 81.7717 82.9508 80.9817 82.2099 80.1547C77.2084 74.6128 71.4906 71.2185 63.4883 71.9344C60.3145 72.2183 56.4368 70.9716 53.794 69.1079C50.4103 66.7257 47.9528 63.0475 45.1248 59.9001C40.2468 54.4692 34.3191 50.6182 27.0206 47.6683C28.8483 50.4208 30.3673 52.5314 31.7134 54.7531C36.3444 62.418 38.629 70.9716 41.0001 79.4882C42.5067 84.9067 45.8163 88.6096 51.707 89.3502C57.1407 90.029 61.8952 91.9669 65.6 96.1758C66.9708 97.7433 68.6009 99.0764 69.737 100.15C74.5286 94.3861 79.3572 88.5602 84.4081 82.4628V82.4875Z" fill="#5F388A"/>
<path id="Vector_3" d="M229.525 51.0253C226.746 57.1104 223.152 62.7017 217.62 66.4292C213.458 69.2311 208.852 71.5392 204.184 73.3783C198.034 75.7851 195.082 80.5495 193.909 86.3877C192.44 93.7564 188.253 98.5454 181.77 101.755C180.226 102.52 178.757 103.396 177.312 104.174C174.558 100.236 171.952 96.1756 168.988 92.411C166.864 89.7079 164.382 87.264 161.85 84.9189C160.084 83.2773 160.319 82.3269 162.32 81.3641C165.148 79.9941 168.013 78.6734 170.754 77.1552C173.52 75.637 175.323 73.3413 176.361 70.2432C178.571 63.6891 183.486 60.2702 190.192 59.5049C194.934 58.9741 199.713 58.4681 204.468 58.5668C212.927 58.7396 220.436 56.0489 227.635 52.0004C228.253 51.6548 228.883 51.3463 229.512 51.013L229.525 51.0253ZM224.721 55.5552C222.547 56.3698 220.448 57.6164 218.2 57.9373C210.297 59.0359 202.344 60.4676 194.403 60.5417C186.067 60.6281 180.399 63.3312 177.448 71.3911C175.879 75.6741 172.582 78.4635 168.26 80.1545C166.284 80.9198 164.567 82.3515 163.32 83.1292C168.198 89.2142 172.989 95.1758 178.016 101.446C184.635 98.1011 190.822 94.2007 192.563 85.4126C193.279 81.7961 195.65 77.9822 198.367 75.4519C201.208 72.8105 205.369 71.5886 208.975 69.7988C215.558 66.5403 220.732 61.7019 224.708 55.5552H224.721Z" fill="#5F388A"/>
<path id="Vector_4" d="M175.2 252.227C169.964 247.203 165.16 242.093 162.814 235.354C161.258 230.898 160.307 226.183 159.566 221.505C158.566 215.161 154.589 211.211 149.254 208.841C142.215 205.719 138.634 200.362 137.004 193.228C136.645 191.66 136.176 190.117 135.657 188.192C144.722 186.143 153.008 182.588 160.578 176.417C161.196 179.404 161.678 182.02 162.295 184.6C163.456 189.451 165.481 193.512 170.087 196.388C175.249 199.609 177.003 205.04 176.312 211.001C175.756 215.84 175.089 220.703 173.903 225.406C171.866 233.49 172.656 241.328 174.891 249.166C175.089 249.844 175.262 250.536 175.398 251.239C175.435 251.412 175.311 251.622 175.163 252.227H175.2ZM160.084 180.144C153.095 183.144 146.327 185.982 139.622 188.994C139.041 189.253 138.448 190.623 138.621 191.302C140.338 198.276 142.968 204.423 150.366 207.607C156.343 210.175 159.998 214.927 161.011 221.752C161.678 226.22 162.912 230.725 164.678 234.873C166.407 238.933 169.112 242.575 171.396 246.401C171.742 241.809 171.051 237.625 171.483 233.577C172.261 226.331 173.693 219.148 174.904 211.952C175.743 206.941 175.336 202.09 170.841 199.115C163.765 194.45 160.764 187.772 160.084 180.157V180.144Z" fill="#5F388A"/>
<path id="Vector_5" d="M140.474 72.428C131.546 71.8972 122.913 71.3788 114.034 70.8481C114.034 68.8732 114.442 66.1084 113.923 63.5288C113.392 60.8627 112.453 57.9868 110.823 55.8762C106.686 50.507 105.76 44.8663 108.316 38.7443C110.156 34.3502 112.12 29.9561 114.59 25.9077C119.11 18.5143 120.678 10.5038 120.678 2.02423C120.678 1.44412 120.789 0.864001 121.58 0C122.778 2.43155 124.062 4.82606 125.161 7.30698C128.681 15.2558 129.693 23.5749 127.742 32.0174C126.198 38.7072 128.434 44.0023 133.2 48.1125C139.424 53.5063 141.573 60.0604 140.721 67.9598C140.548 69.5644 140.536 71.1813 140.474 72.428ZM122.617 5.87521C121.888 9.17075 121.333 11.8245 120.715 14.4658C118.764 22.896 114.417 30.24 110.255 37.6704C107.328 42.8915 107.23 47.9027 110.885 53.0497C112.898 55.8762 114.331 59.2334 115.38 62.5537C116.035 64.6396 115.504 67.0958 115.504 69.1324C123.025 69.5521 130.718 69.9964 138.634 70.4408C139.054 63.0597 139.313 55.7404 132.83 50.1367C127.31 45.3601 124.926 39.5589 126.297 32.0051C127.878 23.254 126.556 14.6757 122.617 5.88755V5.87521Z" fill="#5F388A"/>
<path id="Vector_6" d="M250 157.433C243.801 160.074 237.453 161.506 231.007 160.556C226.055 159.815 221.127 158.285 216.447 156.458C211.1 154.36 206.333 155.199 201.554 157.754C198.614 159.322 195.799 161.333 192.662 162.321C186.71 164.209 181.078 161.975 175.002 159.926C178.942 151.854 182.042 143.72 182.412 134.586C184.82 135.191 187.105 135.821 189.426 136.314C192.501 136.969 195.367 136.611 198.232 135.031C204.369 131.661 211.211 132.846 217.114 137.894C221.275 141.461 225.499 144.954 229.673 148.497C234.687 152.755 240.713 154.853 246.913 156.594C247.938 156.878 248.975 157.149 250 157.421V157.433ZM244.122 157.877C241.047 156.446 238.651 155.384 236.292 154.236C228.228 150.287 221.893 144.078 215.311 138.178C211.211 134.512 206.543 133.216 201.232 135.574C195.786 137.981 190.279 139.45 184.808 136.413C182.548 143.967 180.362 151.286 178.077 158.927C185.117 161.037 192.106 162.531 199.034 157.458C204.505 153.459 210.581 152.311 217.126 155.273C219.794 156.483 222.659 157.384 225.536 157.927C231.513 159.075 237.552 159.322 244.109 157.89L244.122 157.877Z" fill="#5F388A"/>
<path id="Vector_7" d="M83.4568 175.404C91.558 179.823 99.054 183.909 106.785 188.13C105.933 189.562 104.661 191.685 103.401 193.832C101.746 196.659 101.302 199.596 101.919 202.904C103.253 210.1 100.227 215.593 94.3736 219.592C90.0143 222.566 85.4945 225.307 81.0116 228.084C74.9852 231.824 70.6135 237.106 66.921 243.031C66.3653 243.932 65.8096 244.821 64.9081 245.598C64.6241 239.229 64.9822 232.91 67.6373 227.195C69.7861 222.554 72.6017 218.074 75.8743 214.149C80.5424 208.545 80.4683 202.583 78.4059 196.387C75.5532 187.834 79.1222 181.243 83.4445 175.417L83.4568 175.404ZM105.043 189.08C97.9797 185.217 91.2616 181.551 84.2348 177.712C80.9005 183.008 77.5538 188.636 79.9619 195.758C82.4565 203.126 81.7897 209.755 76.3312 215.827C71.4162 221.295 68.8599 228.084 67.2298 235.193C66.921 236.551 66.9087 237.983 66.7481 239.464C69.9096 236.23 72.4906 232.873 75.7508 230.429C81.5056 226.121 87.6556 222.357 93.6821 218.419C98.1278 215.519 101.153 211.803 100.548 206.163C99.8691 199.819 100.017 193.734 105.043 189.093V189.08Z" fill="#5F388A"/>
<path id="Vector_8" d="M0.0123494 162.321C4.34697 157.927 9.06443 153.829 14.881 151.694C19.7713 149.892 25.0198 148.695 30.1942 148.152C36.0848 147.535 40.5553 144.757 42.8523 139.857C47.1622 130.662 54.5965 126.885 63.6239 125.786C64.7847 134.414 65.9579 143.227 67.1805 152.311C66.2913 152.546 64.4883 152.706 63.0434 153.508C60.8823 154.706 58.4742 155.989 57.054 157.903C52.2625 164.308 46.3842 166.678 38.3941 164.852C33.1457 163.654 27.8725 162.556 22.624 161.408C16.2024 160.001 9.87948 160.877 3.58131 162.223C2.50692 162.445 1.44487 162.741 0.38283 163C0.259336 162.778 0.123494 162.568 0 162.346L0.0123494 162.321ZM61.8209 128.193C55.1769 129.674 48.9528 131.686 45.5444 138.685C42.6423 144.646 38.1595 148.793 31.0957 149.386C28.774 149.583 26.44 149.941 24.1677 150.46C17.252 152.027 11.0897 155.113 5.79185 159.433C8.61985 159.433 11.4108 159.507 14.2141 159.421C23.0933 159.162 31.4909 161.667 39.9872 163.741C45.2974 165.037 49.9778 163.951 53.6579 159.458C55.5103 157.199 57.6221 155.064 59.9561 153.323C61.6603 152.052 63.9202 151.521 65.4145 150.879C64.2043 143.276 63.0434 136.006 61.7962 128.181L61.8209 128.193Z" fill="#5F388A"/>
<path id="Vector_9" d="M163.481 174.356C166.617 170.788 169.137 167.913 171.779 164.901C175.941 167.789 180.288 170.406 182.153 175.689C183.709 180.07 187.34 182.255 191.687 183.366C192.934 183.687 194.181 183.934 195.601 184.254C190.192 188.303 181.153 188.031 175.916 183.909C172.99 181.601 169.976 179.428 167.025 177.17C165.827 176.256 164.654 175.281 163.493 174.343L163.481 174.356ZM191.983 184.687C184.067 181.663 184.289 181.527 180.214 174.726C178.633 172.097 175.83 170.159 173.447 168.073C173.014 167.703 171.569 167.801 171.137 168.233C169.384 169.998 167.84 171.986 166.383 173.689C170.26 176.96 173.842 180.231 177.682 183.168C181.832 186.353 186.537 185.489 191.983 184.674V184.687Z" fill="#5F388A"/>
<path id="Vector_10" d="M159.306 46.8657C164.542 51.3709 166.654 60.159 163.493 65.9108C161.011 70.4406 159.146 74.9828 158.862 80.1421C158.837 80.5988 158.504 81.0431 158.232 81.685C154.157 79.4633 150.23 77.3279 146.253 75.1556C147.389 69.5643 149.711 64.9233 154.577 61.5661C158.578 58.8013 159.553 54.3702 159.442 49.7046C159.417 48.8529 159.356 48.0013 159.306 46.8657ZM160.48 51.124C160.838 56.8634 158.59 60.8872 153.724 63.8989C150.081 66.1453 148.636 70.0456 147.97 74.3286C151.106 75.9949 154.243 77.6612 156.725 78.9819C158.405 74.6495 159.627 70.4776 161.591 66.7131C164.468 61.1958 163.061 56.234 160.467 51.1364L160.48 51.124Z" fill="#5F388A"/>
<path id="Vector_11" d="M35.6652 113.801C39.0983 106.963 47.4341 103.408 54.782 105.124C57.9804 105.865 61.3271 106.087 64.6244 106.21C67.6006 106.321 68.5391 107.235 67.7611 110.024C67.0325 112.641 66.4027 115.307 65.4394 117.85C65.1678 118.553 63.8711 119.294 63.0684 119.281C59.2648 119.183 55.56 118.43 52.6085 115.788C48.1751 111.814 43.2106 111.444 37.8263 113.283C37.1841 113.505 36.5049 113.616 35.6775 113.826L35.6652 113.801ZM66.378 108.654C60.8949 107.79 55.5847 106.704 50.2127 106.21C46.7302 105.889 41.2347 109.148 39.2588 112.122C44.9519 109.74 49.4841 111.036 53.7199 114.961C55.3006 116.442 57.8199 117.06 60.0181 117.701C62.1792 118.343 63.9575 117.85 64.4885 115.109C64.9084 112.949 65.7235 110.863 66.3903 108.654H66.378Z" fill="#5F388A"/>
<path id="Vector_12" d="M103.636 74.1192C100.005 75.8348 96.016 77.7109 91.879 79.6611C89.866 75.0819 87.9025 70.5027 89.088 65.0471C90.0512 60.6407 88.0754 56.9132 84.9263 53.8275C84.0742 52.9882 83.0986 52.2599 81.9501 51.2972C87.3714 50.1123 95.6579 54.7902 97.9919 59.9866C98.4859 61.0974 98.8069 62.2823 99.2639 63.4055C100.672 66.9109 102.117 70.4039 103.636 74.1192ZM85.8525 52.7413C86.1118 53.4448 86.1365 53.7781 86.3094 53.9386C90.2488 57.4316 91.4591 61.5664 90.1871 66.7998C89.2856 70.5027 90.3723 74.1562 92.8546 77.4394C95.8431 75.9953 98.6834 74.6252 101.178 73.4156C99.8196 69.6263 98.4859 66.4542 97.5473 63.1834C95.8678 57.3082 91.175 55.0494 85.8401 52.7413H85.8525Z" fill="#5F388A"/>
<path id="Vector_13" d="M182.338 122.133C181.943 120.343 181.511 118.269 181.017 116.22C180.523 114.172 179.942 112.135 179.177 109.222C182.968 109.407 186.71 108.691 189.599 109.926C196.293 112.777 202.208 112.567 208.395 107.346C208.099 108.728 208.099 109.37 207.839 109.901C204.258 117.109 199.034 121.676 190.365 121.219C187.809 121.084 185.215 121.787 182.35 122.133H182.338ZM205.592 110.247C200.232 114.048 195.614 114.196 190.6 111.444C187.871 109.95 184.635 109.728 181.474 111.123C182.252 114.258 183.005 117.257 183.672 119.948C192.193 119.973 200.578 120.034 205.592 110.247Z" fill="#5F388A"/>
<path id="Vector_14" d="M71.4159 159.236C74.0711 162.926 76.5903 166.419 79.6283 170.653C76.578 172.159 73.7747 174.467 70.7244 174.849C63.5865 175.763 58.4862 178.824 55.9175 185.884C53.3982 181.107 55.7446 171.961 60.2027 168.295C61.1413 167.53 62.1663 166.851 63.2036 166.209C64.7473 165.247 66.5009 164.531 67.8717 163.37C69.2178 162.235 70.2057 160.68 71.4159 159.236ZM71.6506 162.469C68.8596 164.321 66.2416 166.209 63.4877 167.839C58.2392 170.949 57.1524 176.059 56.3744 181.786C56.9302 181.416 57.2759 181.317 57.3871 181.107C59.7211 176.577 63.2036 174.17 68.5262 174.084C71.8235 174.022 75.059 172.813 77.0966 169.813C75.2072 167.258 73.4042 164.827 71.6506 162.469Z" fill="#5F388A"/>
<path id="Vector_15" d="M71.6531 129.807C71.9229 100.412 95.0277 78.1291 124.991 78.3562C152.513 78.5691 175.546 102.371 175.376 130.431C175.206 158.718 151.575 182.18 123.33 182.08C94.6869 181.981 71.3833 158.42 71.6531 129.807Z" fill="#5F388A"/>
<path id="Vector_16" d="M84.4076 82.4876C79.3567 88.5726 74.5157 94.3984 69.7365 100.175C68.6128 99.1011 66.9703 97.7681 65.5995 96.2005C61.8947 91.9792 57.1402 90.0538 51.7065 89.3749C45.8159 88.6343 42.5062 84.9315 40.9996 79.5129C38.6285 70.984 36.3562 62.4427 31.7129 54.7778C30.3668 52.5561 28.8478 50.4455 27.0201 47.693C34.3186 50.6429 40.2463 54.4939 45.1243 59.9248C47.9523 63.0722 50.4222 66.7504 53.7935 69.1326C56.4363 70.984 60.314 72.243 63.4878 71.9591C71.4902 71.2432 77.2079 74.6375 82.2094 80.1794C82.9503 81.0064 83.7284 81.7964 84.4076 82.5122V82.4876Z" fill="#5F388A"/>
<path id="Vector_17" d="M224.721 55.5553C220.744 61.702 215.57 66.5405 208.988 69.799C205.369 71.5887 201.22 72.8106 198.38 75.452C195.651 77.9823 193.279 81.7962 192.576 85.4127C190.834 94.2008 184.647 98.1012 178.028 101.446C173.002 95.1759 168.21 89.2143 163.332 83.1293C164.592 82.3517 166.308 80.9199 168.272 80.1546C172.607 78.4637 175.904 75.6742 177.46 71.3912C180.399 63.3313 186.08 60.6282 194.416 60.5418C202.356 60.4554 210.297 59.036 218.213 57.9375C220.448 57.6289 222.56 56.3823 224.733 55.5553H224.721Z" fill="#5F388A"/>
<path id="Vector_18" d="M160.097 180.144C160.776 187.76 163.777 194.437 170.853 199.103C175.348 202.065 175.768 206.928 174.916 211.939C173.706 219.135 172.273 226.319 171.495 233.564C171.063 237.613 171.755 241.797 171.409 246.388C169.124 242.562 166.42 238.921 164.691 234.86C162.925 230.701 161.69 226.208 161.023 221.74C160.011 214.926 156.355 210.162 150.378 207.595C142.968 204.423 140.35 198.276 138.634 191.29C138.473 190.623 139.054 189.241 139.634 188.982C146.34 185.982 153.107 183.131 160.097 180.132V180.144Z" fill="#5F388A"/>
<path id="Vector_19" d="M122.617 5.87508C126.556 14.6755 127.878 23.2538 126.297 31.9926C124.926 39.5341 127.31 45.3476 132.83 50.1243C139.313 55.7279 139.054 63.0473 138.634 70.4283C130.718 69.984 123.024 69.552 115.504 69.12C115.504 67.0834 116.035 64.6272 115.38 62.5412C114.33 59.221 112.898 55.8637 110.885 53.0372C107.217 47.8902 107.316 42.8914 110.255 37.658C114.429 30.2276 118.764 22.8712 120.715 14.4534C121.32 11.812 121.888 9.15828 122.617 5.86273V5.87508Z" fill="#5F388A"/>
<path id="Vector_20" d="M244.122 157.878C237.552 159.31 231.526 159.063 225.549 157.915C222.671 157.36 219.806 156.459 217.139 155.261C210.594 152.287 204.506 153.447 199.047 157.446C192.119 162.519 185.129 161.025 178.09 158.915C180.375 151.287 182.561 143.968 184.821 136.401C190.291 139.438 195.799 137.981 201.245 135.562C206.543 133.217 211.224 134.501 215.324 138.166C221.906 144.066 228.241 150.275 236.305 154.225C238.664 155.385 241.06 156.446 244.135 157.866L244.122 157.878Z" fill="#5F388A"/>
<path id="Vector_21" d="M105.044 189.081C100.017 193.734 99.8691 199.807 100.548 206.151C101.153 211.792 98.1279 215.494 93.6821 218.407C87.6556 222.345 81.5056 226.122 75.7508 230.417C72.4906 232.861 69.9096 236.218 66.7482 239.452C66.9087 237.958 66.9211 236.539 67.2298 235.181C68.8599 228.072 71.4162 221.283 76.3313 215.815C81.7897 209.743 82.4689 203.114 79.962 195.746C77.5538 188.636 80.9005 182.996 84.2348 177.701C91.2616 181.539 97.9797 185.217 105.044 189.068V189.081Z" fill="#5F388A"/>
<path id="Vector_22" d="M61.8213 128.193C63.0686 136.018 64.2294 143.288 65.4397 150.892C63.9454 151.533 61.6855 152.064 59.9813 153.335C57.6472 155.076 55.5355 157.211 53.6831 159.47C50.003 163.963 45.3226 165.049 40.0124 163.753C31.516 161.667 23.1185 159.174 14.2393 159.433C11.436 159.519 8.64502 159.445 5.81702 159.445C11.1149 155.125 17.2772 152.039 24.1929 150.472C26.4651 149.953 28.7992 149.596 31.1208 149.398C38.1723 148.806 42.6675 144.658 45.5696 138.697C48.978 131.698 55.2021 129.686 61.846 128.205L61.8213 128.193Z" fill="#5F388A"/>
<path id="Vector_23" d="M191.983 184.687C186.537 185.501 181.832 186.365 177.682 183.181C173.842 180.243 170.248 176.972 166.383 173.701C167.84 171.986 169.383 170.011 171.137 168.246C171.569 167.814 173.014 167.715 173.446 168.085C175.83 170.171 178.633 172.109 180.214 174.738C184.289 181.539 184.054 181.675 191.983 184.699V184.687Z" fill="#5F388A"/>
<path id="Vector_24" d="M160.468 51.1119C163.049 56.2095 164.469 61.1713 161.591 66.6886C159.616 70.4655 158.405 74.6251 156.726 78.9574C154.244 77.6367 151.107 75.9704 147.97 74.3041C148.637 70.0335 150.082 66.1208 153.725 63.8744C158.591 60.8751 160.838 56.839 160.48 51.0995L160.468 51.1119Z" fill="#5F388A"/>
<path id="Vector_25" d="M66.3777 108.654C65.7109 110.864 64.8958 112.95 64.4759 115.11C63.9449 117.85 62.1666 118.343 60.0055 117.702C57.8073 117.06 55.3004 116.43 53.7073 114.961C49.4838 111.024 44.9516 109.728 39.2462 112.123C41.2221 109.148 46.7176 105.889 50.2001 106.21C55.5721 106.704 60.8946 107.803 66.3654 108.654H66.3777Z" fill="#5F388A"/>
<path id="Vector_26" d="M85.8405 52.7409C91.1754 55.049 95.8558 57.3078 97.5476 63.183C98.4862 66.4538 99.8199 69.626 101.178 73.4152C98.6838 74.6248 95.8434 75.9949 92.8549 77.439C90.385 74.1558 89.2859 70.5023 90.1874 66.7994C91.4594 61.5661 90.2368 57.4312 86.3097 53.9382C86.1368 53.7777 86.1121 53.4444 85.8528 52.7409H85.8405Z" fill="#5F388A"/>
<path id="Vector_27" d="M205.604 110.247C200.578 120.035 192.205 119.985 183.684 119.948C183.017 117.257 182.264 114.258 181.486 111.123C184.648 109.728 187.883 109.951 190.612 111.444C195.626 114.184 200.257 114.048 205.604 110.247Z" fill="#5F388A"/>
<path id="Vector_28" d="M71.6509 162.469C73.4045 164.827 75.2075 167.258 77.097 169.813C75.047 172.825 71.8238 174.022 68.5265 174.084C63.2039 174.183 59.7214 176.577 57.3874 181.107C57.2763 181.329 56.9305 181.428 56.3748 181.786C57.1528 176.059 58.2395 170.949 63.488 167.838C66.2542 166.197 68.86 164.308 71.6509 162.469Z" fill="#5F388A"/>
</g>
</svg>
